<svg width="550" height="99" viewBox="0 0 550 99" fill="none" xmlns="http://www.w3.org/2000/svg">
<g clip-path="url(#clip0_70_3244)">
<mask id="mask0_70_3244" style="mask-type:luminance" maskUnits="userSpaceOnUse" x="43" y="0" width="41" height="99">
<path d="M83.3503 51.1185L83.4476 12.3649L43.7842 0.561523L44.3103 98.3542C82.5147 80.899 83.4476 59.6007 83.4476 59.6007L78.8141 54.4707L83.3503 51.1185ZM57.7997 19.1091L69.4321 22.5851V45.9398L57.7997 42.4638V19.1091ZM69.4321 64.9429C65.8573 68.3307 61.9615 71.3625 57.7997 73.9956V55.0942L69.4321 58.5702V64.9429Z" fill="white"/>
</mask>
<g mask="url(#mask0_70_3244)">
<path d="M57.7996 72.6377L59.3072 73.9954H57.7996V72.6377Z" fill="#F26F3D"/>
<path d="M57.7996 70.9971L61.1288 73.9955H59.3072L57.7996 72.6378V70.9971Z" fill="#F26F3E"/>
<path d="M57.7996 69.3608L62.3226 73.4295L61.8141 73.9955H61.1288L57.7996 70.9971V69.3608Z" fill="#F2703F"/>
<path d="M57.7996 67.7202L63.1405 72.5229L62.3225 73.4295L57.7996 69.3609V67.7202Z" fill="#F2703F"/>
<path d="M57.7996 66.0796L63.954 71.6209L63.1405 72.523L57.7996 67.7203V66.0796Z" fill="#F27140"/>
<path d="M57.7996 64.4434L64.7675 70.7143L63.954 71.6209L57.7996 66.0796V64.4434Z" fill="#F27241"/>
<path d="M57.7996 62.8022L65.581 69.8073L64.7675 70.7139L57.7996 64.443V62.8022Z" fill="#F27242"/>
<path d="M57.7996 61.166L66.399 68.9008L65.581 69.8074L57.7996 62.8023V61.166Z" fill="#F27342"/>
<path d="M57.7996 59.5254L67.2125 67.9943L66.399 68.9009L57.7996 61.1661V59.5254Z" fill="#F37443"/>
<path d="M57.7996 57.8848L68.026 67.0878L67.2125 67.9944L57.7996 59.5255V57.8848Z" fill="#F37444"/>
<path d="M57.7996 56.2485L68.844 66.1857L68.026 67.0879L57.7996 57.8848V56.2485Z" fill="#F37545"/>
<path d="M58.339 55.0942L69.432 65.0756V65.5267L68.844 66.1856L57.7996 56.2485V55.0942H58.339Z" fill="#F37646"/>
<path d="M60.1607 55.0942L69.4321 63.4349V65.0756L58.3391 55.0942H60.1607Z" fill="#F37646"/>
<path d="M61.9822 55.0942L69.4321 61.7986V63.4349L60.1606 55.0942H61.9822Z" fill="#F37747"/>
<path d="M63.8037 55.0942L69.4321 60.1579V61.7986L61.9822 55.0942H63.8037Z" fill="#F37848"/>
<path d="M65.6253 55.0942L69.432 58.5172V60.1579L63.8037 55.0942H65.6253Z" fill="#F37949"/>
<path d="M67.4471 55.0942L69.4322 56.8809V58.5172L65.6255 55.0942H67.4471Z" fill="#F3794A"/>
<path d="M69.2686 55.0942L69.4322 55.2402V56.8809L67.447 55.0942H69.2686Z" fill="#F37A4B"/>
<path d="M69.4321 55.2402L69.2686 55.0942H69.4321V55.2402Z" fill="#F37B4C"/>
<path d="M57.7996 44.7725L59.095 45.94H57.7996V44.7725Z" fill="#F37A4B"/>
<path d="M57.7996 43.1362L60.9166 45.94H59.095L57.7996 44.7725V43.1362Z" fill="#F37B4C"/>
<path d="M57.7996 41.4951L62.7381 45.9396H60.9166L57.7996 43.1358V41.4951Z" fill="#F37C4D"/>
<path d="M57.7996 39.8589L64.5597 45.9397H62.7381L57.7996 41.4952V39.8589Z" fill="#F37D4E"/>
<path d="M57.7996 38.2183L66.3813 45.9398H64.5597L57.7996 39.859V38.2183Z" fill="#F37D4F"/>
<path d="M57.7996 36.5776L68.2029 45.9399H66.3813L57.7996 38.2183V36.5776Z" fill="#F47E50"/>
<path d="M57.7996 34.9414L69.432 45.4092V45.9399H68.2029L57.7996 36.5777V34.9414Z" fill="#F47F51"/>
<path d="M57.7996 33.3008L69.432 43.7686V45.4093L57.7996 34.9415V33.3008Z" fill="#F48052"/>
<path d="M57.7996 31.6646L69.432 42.128V43.7687L57.7996 33.3008V31.6646Z" fill="#F48153"/>
<path d="M57.7996 30.0234L69.432 40.4913V42.1276L57.7996 31.6641V30.0234Z" fill="#F48254"/>
<path d="M57.7996 28.3828L69.432 38.8507V40.4914L57.7996 30.0235V28.3828Z" fill="#F48355"/>
<path d="M57.7996 26.7466L69.432 37.2144V38.8507L57.7996 28.3829V26.7466Z" fill="#F48457"/>
<path d="M57.7996 25.106L69.432 35.5738V37.2145L57.7996 26.7467V25.106Z" fill="#F48558"/>
<path d="M57.7996 23.4653L69.432 33.9332V35.5739L57.7996 25.106V23.4653Z" fill="#F48659"/>
<path d="M57.7996 21.8291L69.432 32.2969V33.9332L57.7996 23.4654V21.8291Z" fill="#F5875A"/>
<path d="M57.7996 20.188L69.432 30.6558V32.2965L57.7996 21.8287V20.188Z" fill="#F5875B"/>
<path d="M58.4185 19.1089L69.432 29.0151V30.6558L57.7996 20.188V19.1089H58.4185Z" fill="#F5885D"/>
<path d="M60.2403 19.1089L69.4321 27.3788V29.0151L58.4187 19.1089H60.2403Z" fill="#F5895E"/>
<path d="M62.0618 19.1089L69.4321 25.7381V27.3788L60.2402 19.1089H62.0618Z" fill="#F58B5F"/>
<path d="M63.8833 19.1089L69.4321 24.1018V25.7381L62.0618 19.1089H63.8833Z" fill="#F58C60"/>
<path d="M65.7049 19.1089L69.432 22.4611V24.1018L63.8833 19.1089H65.7049Z" fill="#F58D62"/>
<path d="M67.5264 19.1089L69.432 20.8248V22.4611L65.7048 19.1089H67.5264Z" fill="#F58E63"/>
<path d="M69.3482 19.1089L69.4322 19.1841V20.8248L67.5266 19.1089H69.3482Z" fill="#F58F64"/>
<path d="M69.4321 19.1841L69.3481 19.1089H69.4321V19.1841Z" fill="#F69065"/>
<path d="M43.7842 97.7217L44.4827 98.3541H43.7842V97.7217Z" fill="#F16534"/>
<path d="M43.7842 96.0854L46.3043 98.3541H44.4827L43.7842 97.7217V96.0854Z" fill="#F16534"/>
<path d="M43.7842 94.4448L48.1259 98.3542H46.3043L43.7842 96.0855V94.4448Z" fill="#F16634"/>
<path d="M43.7842 92.8042L49.9475 98.3543H48.1259L43.7842 94.4449V92.8042Z" fill="#F16635"/>
<path d="M43.7842 91.168L51.769 98.3544H49.9475L43.7842 92.8043V91.168Z" fill="#F16635"/>
<path d="M43.7842 89.5269L53.5906 98.354H51.769L43.7842 91.1676V89.5269Z" fill="#F16635"/>
<path d="M43.7842 87.8906L55.4122 98.354H53.5906L43.7842 89.5269V87.8906Z" fill="#F16735"/>
<path d="M43.7842 86.25L57.2338 98.3541H55.4122L43.7842 87.8907V86.25Z" fill="#F16736"/>
<path d="M43.7842 84.6094L59.0553 98.3542H57.2338L43.7842 86.2501V84.6094Z" fill="#F16736"/>
<path d="M43.7842 82.9731L60.8769 98.3543H59.0553L43.7842 84.6094V82.9731Z" fill="#F16837"/>
<path d="M43.7842 81.3325L62.6985 98.3544H60.8769L43.7842 82.9732V81.3325Z" fill="#F16837"/>
<path d="M43.7842 79.6963L64.52 98.3544H62.6985L43.7842 81.3326V79.6963Z" fill="#F16937"/>
<path d="M43.7842 78.0552L66.3416 98.354H64.52L43.7842 79.6959V78.0552Z" fill="#F16938"/>
<path d="M43.7842 76.4146L67.7122 97.9428L67.3408 98.3541H66.3416L43.7842 78.0553V76.4146Z" fill="#F16938"/>
<path d="M43.7842 74.7783L68.5257 97.0407L67.7122 97.9429L43.7842 76.4146V74.7783Z" fill="#F16A39"/>
<path d="M43.7842 73.1377L69.3393 96.1342L68.5257 97.0408L43.7842 74.7784V73.1377Z" fill="#F26A39"/>
<path d="M43.7842 71.4971L70.1528 95.2277L69.3393 96.1343L43.7842 73.1378V71.4971Z" fill="#F26B3A"/>
<path d="M43.7842 69.8608L70.9707 94.3212L70.1528 95.2278L43.7842 71.4971V69.8608Z" fill="#F26B3A"/>
<path d="M43.7842 68.2197L71.7842 93.4142L70.9707 94.3208L43.7842 69.8604V68.2197Z" fill="#F26C3B"/>
<path d="M43.7842 66.5835L72.5977 92.5076L71.7842 93.4142L43.7842 68.2198V66.5835Z" fill="#F26C3B"/>
<path d="M43.7842 64.9429L73.4113 91.6011L72.5977 92.5077L43.7842 66.5836V64.9429Z" fill="#F26D3C"/>
<path d="M43.7842 63.3022L74.2292 90.6991L73.4113 91.6012L43.7842 64.943V63.3022Z" fill="#F26D3C"/>
<path d="M43.7842 61.666L75.0427 89.7925L74.2292 90.6991L43.7842 63.3023V61.666Z" fill="#F26E3D"/>
<path d="M43.7842 60.0254L75.8562 88.886L75.0427 89.7926L43.7842 61.6661V60.0254Z" fill="#F26F3D"/>
<path d="M43.7842 58.3887L76.6698 87.979L75.8562 88.8856L43.7842 60.025V58.3887Z" fill="#F26F3E"/>
<path d="M43.7842 56.748L77.4877 87.0725L76.6698 87.9791L43.7842 58.3888V56.748Z" fill="#F2703F"/>
<path d="M43.7842 55.1074L78.3012 86.166L77.4877 87.0726L43.7842 56.7481V55.1074Z" fill="#F2703F"/>
<path d="M43.7842 53.4712L79.1147 85.2594L78.3012 86.166L43.7842 55.1075V53.4712Z" fill="#F27140"/>
<path d="M43.7842 51.8306L79.9327 84.3574L79.1147 85.2595L43.7842 53.4713V51.8306Z" fill="#F27241"/>
<path d="M43.7842 50.1943L80.7462 83.4508L79.9327 84.3574L43.7842 51.8306V50.1943Z" fill="#F27242"/>
<path d="M43.7842 48.5537L81.5597 82.5443L80.7462 83.4509L43.7842 50.1944V48.5537Z" fill="#F27342"/>
<path d="M43.7842 46.9126L82.3732 81.6373L81.5597 82.5439L43.7842 48.5533V46.9126Z" fill="#F37443"/>
<path d="M43.7842 45.2764L83.1912 80.7308L82.3732 81.6374L43.7842 46.9127V45.2764Z" fill="#F37444"/>
<path d="M43.7842 43.6357L83.4476 79.3246V80.4434L83.1912 80.7309L43.7842 45.2765V43.6357Z" fill="#F37545"/>
<path d="M43.7842 41.9995L83.4476 77.6883V79.3246L43.7842 43.6358V41.9995Z" fill="#F37646"/>
<path d="M43.7842 40.3589L83.4476 76.0477V77.6884L43.7842 41.9996V40.3589Z" fill="#F37646"/>
<path d="M43.7842 38.7183L83.4476 74.4071V76.0478L43.7842 40.359V38.7183Z" fill="#F37747"/>
<path d="M43.7842 37.0815L83.4476 72.7704V74.4067L43.7842 38.7178V37.0815Z" fill="#F37848"/>
<path d="M43.7842 35.4409L83.4476 71.1297V72.7705L43.7842 37.0816V35.4409Z" fill="#F37949"/>
<path d="M43.7842 33.8003L83.4476 69.4891V71.1298L43.7842 35.441V33.8003Z" fill="#F3794A"/>
<path d="M43.7842 32.1641L83.4476 67.8529V69.4892L43.7842 33.8004V32.1641Z" fill="#F37A4B"/>
<path d="M43.7842 30.5234L83.4476 66.2123V67.853L43.7842 32.1642V30.5234Z" fill="#F37B4C"/>
<path d="M43.7842 28.8872L83.4476 64.576V66.2123L43.7842 30.5235V28.8872Z" fill="#F37C4D"/>
<path d="M43.7842 27.2461L83.4476 62.9349V64.5756L43.7842 28.8868V27.2461Z" fill="#F37D4E"/>
<path d="M43.7842 25.6055L83.4476 61.2943V62.935L43.7842 27.2462V25.6055Z" fill="#F37D4F"/>
<path d="M43.7842 23.9692L83.4476 59.6581V61.2944L43.7842 25.6055V23.9692Z" fill="#F47E50"/>
<path d="M43.7842 22.3286L83.4476 58.0174V59.6581L43.7842 23.9693V22.3286Z" fill="#F47F51"/>
<path d="M43.7842 20.6924L83.4476 56.3812V58.0175L43.7842 22.3287V20.6924Z" fill="#F48052"/>
<path d="M43.7842 19.0518L83.4476 54.7406V56.3813L43.7842 20.6925V19.0518Z" fill="#F48153"/>
<path d="M43.7842 17.4111L83.4476 53.1V54.7407L43.7842 19.0518V17.4111Z" fill="#F48254"/>
<path d="M43.7842 15.7744L83.4476 51.4632V53.0995L43.7842 17.4107V15.7744Z" fill="#F48355"/>
<path d="M43.7842 14.1338L83.4476 49.8226V51.4633L43.7842 15.7745V14.1338Z" fill="#F48457"/>
<path d="M43.7842 12.4932L83.4476 48.1864V49.8227L43.7842 14.1339V12.4932Z" fill="#F48558"/>
<path d="M43.7842 10.8569L83.4476 46.5458V48.1865L43.7842 12.4932V10.8569Z" fill="#F48659"/>
<path d="M43.7842 9.21631L83.4476 44.9051V46.5458L43.7842 10.857V9.21631Z" fill="#F5875A"/>
<path d="M43.7842 7.58008L83.4476 43.2689V44.9052L43.7842 9.21637V7.58008Z" fill="#F5875B"/>
<path d="M43.7842 5.93896L83.4476 41.6278V43.2685L43.7842 7.57968V5.93896Z" fill="#F5885D"/>
<path d="M43.7842 4.29834L83.4476 39.9872V41.6279L43.7842 5.93905V4.29834Z" fill="#F5895E"/>
<path d="M43.7842 2.66211L83.4476 38.3509V39.9872L43.7842 4.2984V2.66211Z" fill="#F58B5F"/>
<path d="M43.7842 1.02148L83.4476 36.7103V38.351L43.7842 2.6622V1.02148Z" fill="#F58C60"/>
<path d="M45.0885 0.561523L83.4476 35.074V36.7103L43.7842 1.02145V0.561523H45.0885Z" fill="#F58D62"/>
<path d="M46.9144 0.561523L83.4475 33.4333V35.074L45.0884 0.561523H46.9144Z" fill="#F58E63"/>
<path d="M48.7317 0.561523L83.4477 31.7926V33.4333L46.9146 0.561523H48.7317Z" fill="#F58F64"/>
<path d="M50.5577 0.561523L83.4477 30.1563V31.7926L48.7317 0.561523H50.5577Z" fill="#F69065"/>
<path d="M52.3792 0.561523L83.4476 28.5156V30.1563L50.5576 0.561523H52.3792Z" fill="#F69167"/>
<path d="M54.2007 0.561523L83.4476 26.8793V28.5156L52.3792 0.561523H54.2007Z" fill="#F69268"/>
<path d="M56.0223 0.561523L83.4475 25.2386V26.8793L54.2007 0.561523H56.0223Z" fill="#F69369"/>
<path d="M57.8438 0.561523L83.4475 23.6023V25.2386L56.0222 0.561523H57.8438Z" fill="#F6946B"/>
<path d="M59.6656 0.561523L83.4477 21.9615V23.6023L57.844 0.561523H59.6656Z" fill="#F6956C"/>
<path d="M61.4871 0.561523L83.4477 20.3208V21.9615L59.6655 0.561523H61.4871Z" fill="#F6976E"/>
<path d="M63.3086 0.561523L83.4476 18.6845V20.3208L61.4871 0.561523H63.3086Z" fill="#F6986F"/>
<path d="M65.1302 0.561523L83.4476 17.0438V18.6845L63.3086 0.561523H65.1302Z" fill="#F79971"/>
<path d="M66.9517 0.561523L83.4475 15.4031V17.0438L65.1301 0.561523H66.9517Z" fill="#F79A72"/>
<path d="M68.7732 0.561523L83.4475 13.7668V15.4031L66.9517 0.561523H68.7732Z" fill="#F79C74"/>
<path d="M70.595 0.561523L83.4477 12.1261V13.7668L68.7734 0.561523H70.595Z" fill="#F79D75"/>
<path d="M72.4165 0.561523L83.4477 10.4898V12.1261L70.595 0.561523H72.4165Z" fill="#F79E77"/>
<path d="M83.4476 10.4898L72.4165 0.561523H83.4476V10.4898Z" fill="#F79E77"/>
</g>
<mask id="mask1_70_3244" style="mask-type:luminance" maskUnits="userSpaceOnUse" x="0" y="0" width="41" height="99">
<path d="M39.9772 0.561523L0.464134 12.3649C0.464134 23.1821 0.433186 33.9463 0.419922 44.7635C0.419922 54.0505 0.512771 62.5725 5.43367 70.8336C10.2573 78.931 17.9725 84.8526 25.6434 90.0755C28.1193 91.7648 30.6704 93.3525 33.2746 94.834C34.5346 95.5504 38.8012 97.8103 40.1452 98.3719V83.663C40.1452 83.663 19.5862 73.0094 14.6742 58.5127L32.6511 55.0633V42.34L14.4001 45.8779V22.6205L26.1872 19.1666V34.2868L40.1452 30.8019L39.9772 0.561523Z" fill="white"/>
</mask>
<g mask="url(#mask1_70_3244)">
<path d="M0.406738 84.7949L15.4745 98.354H0.406738V84.7949Z" fill="#F16332"/>
<path d="M0.406738 83.1543L17.3005 98.3541H15.4745L0.406738 84.795V83.1543Z" fill="#F16332"/>
<path d="M0.406738 81.5137L19.1221 98.3542H17.3005L0.406738 83.1544V81.5137Z" fill="#F16332"/>
<path d="M0.406738 79.8774L20.9436 98.3543H19.1221L0.406738 81.5137V79.8774Z" fill="#F16332"/>
<path d="M0.406738 78.2368L22.7652 98.3543H20.9436L0.406738 79.8775V78.2368Z" fill="#F16332"/>
<path d="M0.406738 76.5962L24.5868 98.3544H22.7652L0.406738 78.2369V76.5962Z" fill="#F16332"/>
<path d="M0.406738 74.9551L26.4084 98.354H24.5868L0.406738 76.5958V74.9551Z" fill="#F16332"/>
<path d="M0.406738 73.3145L28.2299 98.3541H26.4084L0.406738 74.9552V73.3145Z" fill="#F16333"/>
<path d="M0.406738 71.6782L30.0559 98.3542H28.2299L0.406738 73.3145V71.6782Z" fill="#F16433"/>
<path d="M0.406738 70.0376L31.8775 98.3543H30.0559L0.406738 71.6783V70.0376Z" fill="#F16433"/>
<path d="M0.406738 68.397L33.6991 98.3544H31.8775L0.406738 70.0377V68.397Z" fill="#F16433"/>
<path d="M0.406738 66.7607L35.5206 98.3544H33.6991L0.406738 68.397V66.7607Z" fill="#F16433"/>
<path d="M0.406738 65.1196L37.3422 98.354H35.5206L0.406738 66.7603V65.1196Z" fill="#F16433"/>
<path d="M0.406738 63.479L39.1638 98.3541H37.3422L0.406738 65.1197V63.479Z" fill="#F16433"/>
<path d="M0.406738 61.8384L40.1453 97.5935V98.3542H39.1638L0.406738 63.4791V61.8384Z" fill="#F16533"/>
<path d="M0.406738 60.2021L40.1453 95.9529V97.5936L0.406738 61.8384V60.2021Z" fill="#F16534"/>
<path d="M0.406738 58.5615L40.1453 94.3123V95.953L0.406738 60.2022V58.5615Z" fill="#F16534"/>
<path d="M0.406738 56.9209L40.1453 92.6716V94.3123L0.406738 58.5616V56.9209Z" fill="#F16534"/>
<path d="M0.406738 55.2798L40.1453 91.0349V92.6712L0.406738 56.9205V55.2798Z" fill="#F16634"/>
<path d="M0.406738 53.6436L40.1453 89.3943V91.035L0.406738 55.2798V53.6436Z" fill="#F16635"/>
<path d="M0.406738 52.0029L40.1453 87.7537V89.3944L0.406738 53.6436V52.0029Z" fill="#F16635"/>
<path d="M0.406738 50.3623L40.1453 86.113V87.7538L0.406738 52.003V50.3623Z" fill="#F16635"/>
<path d="M0.406738 48.7217L40.1453 84.4768V86.1131L0.406738 50.3624V48.7217Z" fill="#F16735"/>
<path d="M0.406738 47.0854L40.1453 82.8362V84.4769L0.406738 48.7217V47.0854Z" fill="#F16736"/>
<path d="M0.406738 45.4443L40.1453 81.1951V82.8358L0.406738 47.085V45.4443Z" fill="#F16736"/>
<path d="M0.406738 43.8037L40.1453 79.5544V81.1952L0.406738 45.4444V43.8037Z" fill="#F16837"/>
<path d="M0.406738 42.1631L40.1453 77.9183V79.5545L0.406738 43.8038V42.1631Z" fill="#F16837"/>
<path d="M0.406738 40.5269L40.1453 76.2776V77.9183L0.406738 42.1631V40.5269Z" fill="#F16937"/>
<path d="M0.406738 38.8862L40.1453 74.637V76.2777L0.406738 40.5269V38.8862Z" fill="#F16938"/>
<path d="M0.406738 37.2456L40.1453 72.9963V74.6371L0.406738 38.8863V37.2456Z" fill="#F16938"/>
<path d="M0.406738 35.6045L40.1453 71.3597V72.9959L0.406738 37.2452V35.6045Z" fill="#F16A39"/>
<path d="M0.406738 33.9639L40.1453 69.719V71.3597L0.406738 35.6046V33.9639Z" fill="#F26A39"/>
<path d="M0.406738 32.3276L40.1453 68.0784V69.7191L0.406738 33.9639V32.3276Z" fill="#F26B3A"/>
<path d="M0.406738 30.687L40.1453 66.4377V68.0785L0.406738 32.3277V30.687Z" fill="#F26B3A"/>
<path d="M0.406738 29.0464L40.1453 64.8015V66.4378L0.406738 30.6871V29.0464Z" fill="#F26C3B"/>
<path d="M0.406738 27.4058L40.1453 63.1609V64.8016L0.406738 29.0465V27.4058Z" fill="#F26C3B"/>
<path d="M0.406738 25.769L40.1453 61.5198V63.1605L0.406738 27.4053V25.769Z" fill="#F26D3C"/>
<path d="M0.406738 24.1284L40.1453 59.8792V61.5199L0.406738 25.7691V24.1284Z" fill="#F26D3C"/>
<path d="M0.406738 22.4878L40.1453 58.243V59.8792L0.406738 24.1285V22.4878Z" fill="#F26E3D"/>
<path d="M0.406738 20.8472L40.1453 56.6023V58.243L0.406738 22.4879V20.8472Z" fill="#F26F3D"/>
<path d="M0.406738 19.2109L40.1453 54.9617V56.6024L0.406738 20.8472V19.2109Z" fill="#F26F3E"/>
<path d="M0.406738 17.5703L40.1453 53.321V54.9618L0.406738 19.211V17.5703Z" fill="#F2703F"/>
<path d="M0.406738 15.9292L40.1453 51.6844V53.3206L0.406738 17.5699V15.9292Z" fill="#F2703F"/>
<path d="M0.406738 14.2886L40.1453 50.0437V51.6844L0.406738 15.9293V14.2886Z" fill="#F27140"/>
<path d="M0.406738 12.6523L40.1453 48.4031V50.0438L0.406738 14.2886V12.6523Z" fill="#F27241"/>
<path d="M0.406738 11.8344L0.813497 11.3789L40.1453 46.7626V48.4033L0.406738 12.6526V11.8344Z" fill="#F27242"/>
<path d="M0.813477 11.3788L1.63142 10.4722L40.1453 45.1262V46.7624L0.813477 11.3788Z" fill="#F27342"/>
<path d="M1.63135 10.472L2.44487 9.56543L40.1452 43.4853V45.126L1.63135 10.472Z" fill="#F37443"/>
<path d="M2.44507 9.56577L3.26301 8.65918L40.1454 41.8449V43.4856L2.44507 9.56577Z" fill="#F37444"/>
<path d="M3.26294 8.65903L4.07646 7.75244L40.1454 40.2041V41.8448L3.26294 8.65903Z" fill="#F37545"/>
<path d="M4.07642 7.7523L4.88993 6.8457L40.1453 38.5632V40.2039L4.07642 7.7523Z" fill="#F37646"/>
<path d="M4.88989 6.84553L5.70783 5.94336L40.1453 36.9267V38.563L4.88989 6.84553Z" fill="#F37646"/>
<path d="M5.70776 5.9437L6.52128 5.03711L40.1452 35.2864V36.9271L5.70776 5.9437Z" fill="#F37747"/>
<path d="M6.52148 5.03696L7.335 4.13037L40.1454 33.6455V35.2862L6.52148 5.03696Z" fill="#F37848"/>
<path d="M7.33496 4.13023L8.1529 3.22363L40.1454 32.0091V33.6454L7.33496 4.13023Z" fill="#F37949"/>
<path d="M8.15283 3.22398L8.96635 2.31738L40.1453 30.3687V32.0094L8.15283 3.22398Z" fill="#F3794A"/>
<path d="M8.96631 2.31724L9.77983 1.41064L40.1453 28.7279V30.3686L8.96631 2.31724Z" fill="#F37A4B"/>
<path d="M9.77979 1.41063L10.5447 0.561523H10.6596L40.1452 27.0871V28.7278L9.77979 1.41063Z" fill="#F37B4C"/>
<path d="M12.4812 0.561523L40.1453 25.4508V27.0871L10.6597 0.561523H12.4812Z" fill="#F37C4D"/>
<path d="M14.3028 0.561523L40.1452 23.8101V25.4508L12.4812 0.561523H14.3028Z" fill="#F37D4E"/>
<path d="M16.129 0.561523L40.1454 22.1694V23.8101L14.303 0.561523H16.129Z" fill="#F37D4F"/>
<path d="M17.9505 0.561523L40.1454 20.5287V22.1694L16.1289 0.561523H17.9505Z" fill="#F47E50"/>
<path d="M19.772 0.561523L40.1453 18.8924V20.5287L17.9504 0.561523H19.772Z" fill="#F47F51"/>
<path d="M21.5935 0.561523L40.1453 17.2517V18.8924L19.772 0.561523H21.5935Z" fill="#F48052"/>
<path d="M23.4151 0.561523L40.1453 15.611V17.2517L21.5935 0.561523H23.4151Z" fill="#F48153"/>
<path d="M25.2366 0.561523L40.1452 13.9703V15.611L23.415 0.561523H25.2366Z" fill="#F48254"/>
<path d="M27.0584 0.561523L40.1454 12.334V13.9703L25.2368 0.561523H27.0584Z" fill="#F48355"/>
<path d="M28.8843 0.561523L40.1454 10.6933V12.334L27.0583 0.561523H28.8843Z" fill="#F48457"/>
<path d="M30.7058 0.561523L40.1453 9.05254V10.6933L28.8843 0.561523H30.7058Z" fill="#F48558"/>
<path d="M32.5274 0.561523L40.1453 7.41183V9.05254L30.7058 0.561523H32.5274Z" fill="#F48659"/>
<path d="M34.3489 0.561523L40.1452 5.77112V7.41183L32.5273 0.561523H34.3489Z" fill="#F5875A"/>
<path d="M36.1707 0.561523L40.1454 4.13483V5.77112L34.3491 0.561523H36.1707Z" fill="#F5875B"/>
<path d="M37.9967 0.561523L40.1454 2.49412V4.13483L36.1707 0.561523H37.9967Z" fill="#F5885D"/>
<path d="M39.8182 0.561523L40.1453 0.853402V2.49412L37.9966 0.561523H39.8182Z" fill="#F5895E"/>
<path d="M40.1453 0.853402L39.8181 0.561523H40.1453V0.853402Z" fill="#F58B5F"/>
</g>
<path d="M43.8946 99.0044L43.364 0.00878906L43.9034 0.172419L83.8586 12.051L83.7569 51.3308L79.4241 54.5326L83.8586 59.4459V59.6184C83.8586 59.8395 83.5624 65.1464 78.5531 72.6645C75.2825 77.4216 71.3235 81.6662 66.8057 85.2595C60.7397 90.2038 53.2279 94.7367 44.4826 98.7346L43.8946 99.0044ZM44.2041 1.12323L44.7258 97.7042C63.9717 88.7975 73.3625 78.9355 77.8589 72.2002C82.2802 65.5975 82.9302 60.7019 83.0186 59.7467L78.195 54.4044L82.9346 50.9018L83.0319 12.6701L44.2041 1.12323ZM57.3839 74.7475V54.5371L69.852 58.2607V65.1155L69.7282 65.2393C66.1274 68.6452 62.2067 71.6961 58.0206 74.3495L57.3839 74.7475ZM58.2151 55.6559V73.235C62.0591 70.7378 65.6724 67.9021 69.0119 64.7617V58.8843L58.2151 55.6559ZM69.8476 46.5016L57.3795 42.7779V18.5475L69.8476 22.2756V46.5016ZM58.2151 42.1543L69.0119 45.3783V22.8992L58.2151 19.6708V42.1543Z" fill="#FBC8AD"/>
<path d="M40.5609 98.9734L39.9861 98.7434C38.6597 98.1995 34.3932 95.9485 33.0712 95.2055C30.4626 93.724 27.885 92.1098 25.4047 90.4293C17.7205 85.1932 9.93014 79.2229 5.06672 71.0548C-0.0310351 62.5062 -0.0177719 53.489 -0.00450799 44.7724L0.0352854 12.0466L40.3928 0.00878906L40.5653 31.1337L25.7672 34.8264V19.7239L14.8201 22.9301V45.3871L33.0712 41.8492V55.4215L15.2313 58.8268C20.3069 72.7706 40.1364 83.1766 40.3354 83.2827L40.5609 83.3977V98.9734ZM0.879751 12.6746L0.835538 44.7635C0.835538 53.3695 0.835538 62.2674 5.79181 70.6214C10.5756 78.648 18.2731 84.5475 25.8777 89.7306C28.336 91.4067 30.8959 92.9987 33.4824 94.4714C34.6363 95.1259 38.0407 96.9347 39.7252 97.713V83.9107C35.9692 81.8359 32.3814 79.47 28.9948 76.8348C23.6892 72.7176 16.8495 66.2211 14.2807 58.6322L14.1259 58.19L32.2532 54.714V42.8486L14.0021 46.3866V22.3066L26.6205 18.6094V33.7518L39.7429 30.4792L39.5838 1.12323L0.879751 12.6746Z" fill="#FBC8AD"/>
<path d="M150.651 33.9156H130.967V44.6753H148.9V58.3229H130.967V83.2255H114.609V20.2681H150.655L150.651 33.9156Z" fill="white"/>
<path d="M204.591 67.5789C204.591 75.5393 200.826 80.827 193.295 83.4421C190.161 84.5153 186.33 85.0533 181.799 85.0563C172.918 85.0563 166.541 82.8731 162.668 78.5067C160.237 75.7383 159.021 72.0957 159.021 67.5789V40.4165H174.186V64.6734C174.186 67.3504 174.827 69.3184 176.109 70.5773C177.483 71.9306 179.398 72.6057 181.857 72.6028C184.315 72.5998 186.209 71.9247 187.538 70.5773C188.82 69.3184 189.461 67.3504 189.461 64.6734V40.4165H204.631L204.591 67.5789Z" fill="white"/>
<path d="M230.035 83.212H214.87V13.9482H230.035V83.212Z" fill="white"/>
<path d="M255.484 83.212H240.319V13.9482H255.484V83.212Z" fill="white"/>
<path d="M315.092 65.3191C315.092 70.0364 313.755 73.8691 311.082 76.8174C307.209 81.0924 301.314 83.2299 293.397 83.2299H267.192V20.2681H291.536C303.326 20.2681 309.221 25.7401 309.221 36.684C309.221 39.9743 308.575 42.725 307.284 44.9362C306.072 46.9432 304.356 48.5975 302.306 49.7346C307.317 50.7783 310.746 52.7919 312.594 55.7756C314.295 58.6636 315.16 61.9678 315.092 65.3191ZM294.069 38.851C294.069 35.9882 292.784 34.0969 290.214 33.1771C289.021 32.84 287.783 32.6908 286.544 32.7348H283.56V45.0291H286.544C289.356 45.0291 291.375 44.3378 292.601 42.955C293.591 41.8216 294.116 40.3554 294.069 38.851ZM298.733 64.2135C298.733 60.5518 296.85 58.3995 293.083 57.7568C291.039 57.5269 288.981 57.4338 286.924 57.4782H283.568V70.7454H287.198C291.369 70.7454 294.28 70.2545 295.93 69.2728C297.799 68.173 298.733 66.4866 298.733 64.2135Z" fill="#F3794A" stroke="#FBBEA0" stroke-miterlimit="10"/>
<path d="M373.918 61.8122C373.918 67.7471 371.965 72.8358 368.059 77.0784C363.343 82.2437 356.72 84.8249 348.19 84.822C339.66 84.819 333.028 82.2378 328.294 77.0784C324.389 72.8387 322.437 67.6277 322.44 61.4451C322.44 55.8818 324.406 50.9478 328.338 46.6434C333.105 41.4485 339.884 38.8511 348.676 38.8511C356.759 38.8511 363.212 41.4485 368.037 46.6434C371.905 50.7362 374.016 56.1814 373.918 61.8122ZM358.151 61.8122C358.155 60.5028 357.9 59.2056 357.401 57.9951C356.902 56.7847 356.168 55.6849 355.243 54.7593C354.317 53.8336 353.217 53.1002 352.007 52.6014C350.796 52.1027 349.499 51.8483 348.19 51.8529C346.734 51.8169 345.289 52.1174 343.968 52.731C342.646 53.3446 341.484 54.2548 340.572 55.3909C339.034 57.193 338.189 59.4848 338.189 61.8542C338.189 64.2237 339.034 66.5155 340.572 68.3176C341.484 69.4541 342.646 70.3647 343.967 70.9784C345.288 71.592 346.734 71.8922 348.19 71.8555C349.505 71.8662 350.809 71.6143 352.025 71.1146C353.241 70.6149 354.346 69.8774 355.273 68.9454C356.201 68.0133 356.933 66.9054 357.428 65.6866C357.922 64.4679 358.168 63.1627 358.151 61.8476V61.8122Z" fill="#F3794A" stroke="#FBBEA0" stroke-miterlimit="10"/>
<path d="M432.323 61.8122C432.323 67.7471 430.372 72.8358 426.469 77.0784C421.753 82.2437 415.13 84.8249 406.6 84.822C398.07 84.819 391.438 82.2378 386.704 77.0784C382.801 72.8387 380.85 67.6277 380.85 61.4451C380.85 55.8818 382.816 50.9478 386.748 46.6434C391.514 41.4485 398.294 38.8511 407.086 38.8511C415.171 38.8511 421.626 41.4485 426.451 46.6434C430.314 50.7386 432.421 56.183 432.323 61.8122ZM416.556 61.8122C416.562 60.504 416.308 59.2076 415.811 57.9978C415.313 56.788 414.581 55.6886 413.657 54.7629C412.732 53.8373 411.634 53.1036 410.425 52.6042C409.217 52.1047 407.921 51.8494 406.613 51.8529C405.157 51.8169 403.712 52.1174 402.39 52.731C401.069 53.3446 399.907 54.2548 398.995 55.3909C397.457 57.193 396.612 59.4848 396.612 61.8542C396.612 64.2237 397.457 66.5155 398.995 68.3176C399.907 69.4541 401.069 70.3647 402.39 70.9784C403.711 71.592 405.157 71.8922 406.613 71.8555C407.927 71.8656 409.231 71.6133 410.446 71.1133C411.662 70.6133 412.766 69.8757 413.693 68.9438C414.62 68.0118 415.353 66.9041 415.846 65.6856C416.34 64.4671 416.586 63.1623 416.57 61.8476L416.556 61.8122Z" fill="#F3794A" stroke="#FBBEA0" stroke-miterlimit="10"/>
<path d="M475.749 68.7774C475.749 73.3295 474.128 77.0487 470.885 79.9351C467.231 83.1959 462.083 84.8174 455.442 84.7997C449.57 84.7997 443.87 83.1561 438.34 79.8688L443.827 69.171C448.148 71.9954 452.163 73.4091 455.871 73.412C459.028 73.412 460.606 72.3212 460.606 70.1395C460.61 69.5888 460.456 69.0485 460.163 68.5823C459.87 68.1161 459.45 67.7434 458.952 67.5081C458.245 67.1101 456.65 66.634 454.169 66.0797C452.316 65.7193 450.488 65.2422 448.695 64.6513C445.633 63.4719 443.569 61.6013 442.505 59.0392C441.882 57.4564 441.581 55.7648 441.621 54.064C441.582 50.4236 442.954 46.9097 445.45 44.2595C448.733 40.6685 453.805 38.873 460.663 38.873C465.425 38.8737 470.14 39.8145 474.537 41.6415L469.396 51.4371C466.575 49.963 463.879 49.2259 461.309 49.2259C458.279 49.2259 456.764 50.2799 456.764 52.3879C456.764 53.3476 457.374 54.1259 458.603 54.7141C459.157 54.9883 460.778 55.4025 463.467 55.9568C467.425 56.7882 470.339 58.1149 472.207 59.937C474.568 62.2012 475.749 65.148 475.749 68.7774Z" fill="#F3794A" stroke="#FBBEA0" stroke-miterlimit="10"/>
<path d="M508.988 52.8214H500.367V83.2122H485.202V52.8214H480.223V40.4387H485.202V27.5518H500.367V40.4165H508.988V52.8214Z" fill="#F3794A" stroke="#FBBEA0" stroke-miterlimit="10"/>
<path d="M549.372 68.7774C549.372 73.3295 547.744 77.0487 544.487 79.9351C540.832 83.1959 535.684 84.8174 529.043 84.7997C523.172 84.7997 517.471 83.1561 511.942 79.8688L517.424 69.171C521.748 71.9954 525.764 73.4091 529.472 73.412C532.629 73.412 534.207 72.3212 534.207 70.1395C534.211 69.5883 534.056 69.0477 533.763 68.5815C533.469 68.1152 533.048 67.7428 532.549 67.5081C531.848 67.1101 530.253 66.634 527.765 66.0797C525.914 65.7195 524.087 65.2425 522.296 64.6513C519.228 63.4719 517.157 61.6013 516.084 59.0392C515.463 57.4559 515.162 55.7647 515.2 54.064C515.16 50.4242 516.53 46.9102 519.024 44.2595C522.314 40.6685 527.385 38.873 534.238 38.873C539.001 38.8733 543.718 39.8141 548.117 41.6415L542.997 51.415C540.182 49.9409 537.488 49.2038 534.915 49.2038C531.882 49.2038 530.365 50.2578 530.365 52.3658C530.365 53.3255 530.98 54.1038 532.209 54.692C532.757 54.9662 534.378 55.3804 537.072 55.9347C541.025 56.7661 543.937 58.0928 545.809 59.9149C548.184 62.1939 549.372 65.148 549.372 68.7774Z" fill="#F3794A" stroke="#FBBEA0" stroke-miterlimit="10"/>
</g>
<defs>
<clipPath id="clip0_70_3244">
<rect width="550" height="99" fill="white"/>
</clipPath>
</defs>
</svg>
