<svg width="46" height="32" viewBox="0 0 46 32" fill="none" xmlns="http://www.w3.org/2000/svg">
<g id="Payment Icons">
<rect x="0.5" y="0.5" width="45" height="31" rx="3.5" fill="#292D32" fill-opacity="0.48"/>
<g id="Payoneer">
<path id="Payoneer_2" fill-rule="evenodd" clip-rule="evenodd" d="M5.33301 19.2082C5.35609 19.0842 5.37723 18.9641 5.39795 18.8463C5.42998 18.6643 5.46101 18.4879 5.49669 18.3116C5.64777 17.5139 5.79989 16.7173 5.95202 15.9207L5.95202 15.9207L5.95203 15.9206L5.95203 15.9206L5.95204 15.9206L5.95206 15.9205C6.1042 15.1238 6.25633 14.3271 6.40742 13.5294C6.42841 13.4284 6.45779 13.361 6.55851 13.3442C7.34334 13.2263 8.13236 13.1421 8.91719 13.34C9.60129 13.5084 10.0797 13.9925 10.1595 14.5608C10.3232 15.6932 9.66425 16.5982 8.68636 16.9224C8.17014 17.0908 7.64552 17.1329 7.11251 17.0824C6.9866 17.0697 6.94883 17.1034 6.92784 17.2255C6.81453 17.8443 6.69701 18.4589 6.5753 19.0735C6.56691 19.124 6.52074 19.204 6.49136 19.204C6.20617 19.2103 5.92567 19.2096 5.63411 19.2088H5.63408H5.63406H5.63403H5.634H5.63398L5.63355 19.2088C5.53484 19.2085 5.43486 19.2082 5.33301 19.2082ZM7.37662 16.0847L7.37664 16.0847C7.54081 16.0892 7.69583 16.0934 7.84697 16.0762C8.28346 16.0299 8.6318 15.8321 8.82906 15.4153C9.0515 14.9438 8.89201 14.4429 8.47232 14.2956C8.17434 14.1903 7.86796 14.2114 7.56158 14.2535C7.52381 14.2577 7.47345 14.3166 7.46505 14.3545C7.40634 14.6631 7.34764 14.9729 7.28672 15.2945L7.13769 16.0805C7.21974 16.0805 7.29919 16.0826 7.37662 16.0847ZM12.7739 18.3999C12.7075 18.4691 12.6453 18.5388 12.5845 18.607L12.5845 18.607L12.5845 18.607L12.5845 18.607L12.5845 18.607L12.5845 18.607C12.4532 18.7541 12.3284 18.8938 12.1821 19.0061C11.7415 19.347 11.2378 19.4228 10.73 19.1871C10.2264 18.9555 10.0207 18.5051 9.99974 17.9747C9.95357 16.8591 10.3439 15.9372 11.2798 15.2974C11.8674 14.8932 12.5431 14.7711 13.244 14.809C13.4758 14.8227 13.7059 14.8631 13.9365 14.9035C14.0607 14.9253 14.1851 14.9471 14.31 14.9648C14.4527 14.9858 14.4737 15.0658 14.4485 15.1879C14.4149 15.3635 14.3809 15.539 14.3469 15.7144L14.3469 15.7144L14.3469 15.7144L14.3469 15.7144L14.3469 15.7144L14.3467 15.7156L14.3467 15.7157C14.2196 16.372 14.0928 17.0268 13.9868 17.6842C13.9261 18.0606 13.9018 18.4461 13.8778 18.8278L13.8778 18.8281C13.8736 18.8946 13.8695 18.9609 13.8651 19.0271C13.8567 19.1618 13.8232 19.2165 13.6847 19.2123C13.4244 19.2039 13.1642 19.2039 12.904 19.2123C12.7697 19.2165 12.7236 19.166 12.7361 19.0355C12.7481 18.8913 12.7558 18.7428 12.7638 18.5885C12.7671 18.5266 12.7703 18.4637 12.7739 18.3999ZM13.0673 15.7982C12.6602 15.6846 12.3203 15.7646 12.0349 16.0045C11.4977 16.4592 11.2543 17.0485 11.3004 17.7515C11.313 17.9662 11.397 18.1725 11.6236 18.2651C11.8502 18.3577 12.0559 18.2904 12.2322 18.1388C12.3371 18.0462 12.4378 17.941 12.5134 17.8231C12.8094 17.3699 12.8902 16.8587 12.9724 16.3394L12.9724 16.3394L12.9724 16.3394L12.9724 16.3394L12.9724 16.3394L12.9724 16.3394C13.0009 16.1593 13.0295 15.9782 13.0673 15.7982ZM19.015 18.1558C19.2459 18.8967 19.8796 19.3093 20.9918 19.3093C21.7556 19.2882 22.5153 18.8546 22.9895 17.9622C23.2413 17.4823 23.3337 16.9687 23.3001 16.4299C23.2707 15.9121 23.0651 15.4743 22.6454 15.1627C22.2047 14.8344 21.7011 14.767 21.1639 14.826C19.3676 15.028 18.6331 16.935 19.015 18.1558ZM20.2107 17.5376L20.2107 17.5375C20.2111 17.516 20.2116 17.4947 20.2116 17.4738C20.2242 16.9897 20.3417 16.5393 20.6313 16.1393C20.7614 15.9625 20.9251 15.8278 21.1433 15.7773C21.5882 15.6763 21.9533 15.9331 21.9953 16.4172C22.0456 17.0107 21.903 17.558 21.5294 18.0337C21.3867 18.2105 21.2063 18.3326 20.9754 18.3536C20.5599 18.3915 20.2452 18.1095 20.2116 17.6674C20.2088 17.6252 20.2097 17.5811 20.2107 17.5376ZM24.2994 14.9145H25.3654C25.3486 15.1418 25.3318 15.3607 25.3108 15.5838C25.3497 15.5475 25.3872 15.5117 25.424 15.4766L25.4242 15.4764L25.4242 15.4764L25.4242 15.4764L25.4242 15.4764C25.5027 15.4015 25.5779 15.3297 25.655 15.2639C26.0705 14.9018 26.5447 14.7419 27.0945 14.8303C27.5478 14.906 27.8626 15.2386 27.9129 15.7059C27.9677 16.1921 27.8767 16.6637 27.786 17.1343L27.786 17.1343L27.766 17.2382C27.7294 17.4286 27.6931 17.6191 27.6569 17.8094L27.6564 17.8119C27.5767 18.2307 27.4971 18.6489 27.4135 19.0652C27.4009 19.1199 27.338 19.1999 27.296 19.2041C26.935 19.2125 26.5741 19.2083 26.2132 19.2041C26.2011 19.2041 26.189 19.1975 26.1706 19.1876C26.1635 19.1837 26.1554 19.1793 26.146 19.1746C26.2132 18.8252 26.2803 18.4716 26.3433 18.118C26.4398 17.575 26.5321 17.0361 26.6161 16.4931C26.6329 16.4005 26.6245 16.3036 26.6119 16.211C26.5783 15.8869 26.3391 15.7396 26.0285 15.8364C25.7263 15.9332 25.5459 16.1689 25.399 16.4299C25.1807 16.813 25.1052 17.2382 25.0296 17.6633V17.6633L25.0296 17.6634C25.0107 17.7688 24.992 17.8739 24.9733 17.979C24.9091 18.3397 24.8451 18.6991 24.7736 19.061C24.761 19.1157 24.6981 19.1999 24.6561 19.2041C24.3618 19.2142 24.0648 19.2135 23.7482 19.2129H23.7482H23.748H23.7478H23.7475C23.667 19.2127 23.5853 19.2125 23.502 19.2125C23.779 17.7644 24.0392 16.3457 24.2994 14.9145ZM30.3507 18.3284C29.9058 18.2736 29.6078 17.9621 29.6372 17.5243C29.73 17.5243 29.8223 17.5257 29.9142 17.5272H29.9142C30.0965 17.53 30.277 17.5327 30.4556 17.5243C30.8879 17.4991 31.3118 17.4275 31.7063 17.2297C32.2099 16.9771 32.445 16.5603 32.4072 16.0173C32.3694 15.4658 32.0714 15.0659 31.5384 14.9059C30.741 14.666 30.0065 14.8344 29.3812 15.369C28.6216 16.0173 28.3362 16.876 28.4453 17.8569C28.5208 18.5515 28.8986 19.0482 29.5868 19.225C30.3255 19.4145 31.0516 19.3134 31.7525 19.0272C31.8028 19.0061 31.8616 18.9261 31.8574 18.8756C31.8473 18.6702 31.8265 18.4648 31.8057 18.2594C31.8005 18.208 31.7953 18.1566 31.7902 18.1053C31.7764 18.1053 31.7662 18.1046 31.7583 18.104C31.747 18.1032 31.7406 18.1028 31.7357 18.1053C31.6895 18.1221 31.6433 18.1389 31.6014 18.1558C31.1985 18.3115 30.783 18.3789 30.3507 18.3284ZM31.0012 16.4635C30.7452 16.5982 30.082 16.6782 29.7589 16.6108C29.826 16.0509 30.4178 15.6131 30.9172 15.7352C31.0851 15.7773 31.2068 15.8657 31.2362 16.0467C31.2656 16.2235 31.1774 16.3709 31.0012 16.4635ZM33.8298 17.5413C33.7921 17.9539 34.0858 18.2696 34.5349 18.3285C34.9546 18.3791 35.3575 18.3159 35.752 18.1728C35.7883 18.1591 35.8234 18.1455 35.8618 18.1305L35.862 18.1304L35.8621 18.1304C35.8948 18.1177 35.9299 18.104 35.9703 18.0886C35.9785 18.1778 35.9876 18.2651 35.9965 18.3513L35.9966 18.3514C36.0151 18.5296 36.0331 18.7027 36.0416 18.8758C36.0458 18.9263 35.9871 19.0063 35.9409 19.0273C35.2274 19.322 34.493 19.423 33.7417 19.2168C33.066 19.0315 32.7134 18.539 32.6295 17.8655C32.5246 17.0025 32.747 16.2237 33.3472 15.5838C33.9935 14.8977 34.7867 14.6535 35.7017 14.9061C36.2599 15.0618 36.5578 15.466 36.5914 16.0343C36.625 16.5899 36.3732 17.0067 35.8486 17.2509C35.3197 17.495 34.7574 17.5329 34.1866 17.5455C34.0733 17.5413 33.9557 17.5413 33.8298 17.5413ZM33.9512 16.6448C34.0275 16.64 34.1025 16.6362 34.1764 16.6325C34.3626 16.6232 34.542 16.6142 34.7192 16.5901C34.8871 16.569 35.055 16.5185 35.2061 16.4469C35.3697 16.3754 35.4495 16.2238 35.4243 16.0386C35.3991 15.8618 35.2816 15.7776 35.1179 15.7355C34.6227 15.6008 34.0057 16.0554 33.9512 16.6448ZM36.8226 18.3284C36.768 18.6147 36.7177 18.8967 36.6631 19.2082C36.7472 19.2082 36.83 19.2084 36.9119 19.2086C37.2348 19.2093 37.5428 19.2099 37.8508 19.1998C37.8802 19.1998 37.9264 19.1198 37.9348 19.0693C37.9776 18.8591 38.0173 18.6478 38.057 18.4366C38.1301 18.0472 38.2032 17.6581 38.2957 17.276C38.5014 16.4257 38.8497 16.131 39.6765 16.0215C39.7101 16.0173 39.7647 15.9794 39.773 15.95C39.8257 15.708 39.8729 15.4643 39.9218 15.2114C39.947 15.0814 39.9726 14.9491 39.9997 14.8134C39.2023 14.7292 38.7574 15.1922 38.3713 15.7605L38.3774 15.6789C38.3964 15.4274 38.4157 15.1714 38.4384 14.9018C38.3512 14.9018 38.2655 14.9015 38.1811 14.9012C37.9325 14.9004 37.6944 14.8997 37.4563 14.906C37.4228 14.9102 37.3598 14.9859 37.3556 15.0323C37.2661 16.1142 37.0541 17.1724 36.8423 18.2299L36.8226 18.3284Z" fill="#A0A1A4"/>
<path id="Payoneer_3" fill-rule="evenodd" clip-rule="evenodd" d="M25.7107 9.83592C25.6682 9.82467 25.6257 9.81343 25.5832 9.80396C25.4531 9.80396 25.323 9.80396 25.1845 9.80816C25.1372 9.81765 25.0899 9.828 25.0422 9.83843C24.9841 9.85113 24.9255 9.86396 24.8656 9.87552C24.2234 9.9976 23.6191 10.2207 23.0357 10.5154C21.7724 11.1553 20.6392 11.9846 19.6236 12.9654C18.9479 13.6137 18.2932 14.2915 17.6594 14.9861C16.5472 16.2069 15.5945 17.5497 14.8349 19.0231C14.4446 19.7851 14.092 20.5639 13.9325 21.41C13.9032 21.5658 13.9535 21.7468 14.0039 21.9025C14.0249 21.9657 14.1424 22.012 14.2221 22.0372C14.2431 22.0457 14.3061 21.9404 14.3354 21.8815C14.3459 21.8587 14.3566 21.8353 14.3675 21.8114C14.5497 21.4121 14.7962 20.8721 15.01 20.5146C15.4633 19.7569 15.8212 19.1705 16.329 18.4506C17.1432 17.2929 18.0945 16.1571 19.0934 15.1552C20.0377 14.208 20.9834 13.3611 22.1711 12.7213C22.7167 12.4308 23.2749 12.1445 23.8457 11.9088C24.832 11.5004 25.8602 11.2226 26.9179 11.0669C27.0312 11.05 27.1823 10.9616 27.22 10.869C27.2536 10.7848 27.1739 10.6248 27.0941 10.5449C26.771 10.2123 26.3932 9.95971 25.9232 9.88394C25.8524 9.87341 25.7815 9.85467 25.7107 9.83592ZM16.102 15.5796C16.3034 15.0323 16.4041 14.464 16.4167 13.8747C16.4111 13.8115 16.4065 13.7484 16.4018 13.6852C16.3925 13.5589 16.3832 13.4326 16.3664 13.3064C16.2531 12.3297 15.8334 11.5004 15.166 10.789C15.0863 10.709 14.9772 10.6458 14.8681 10.608C14.7589 10.5659 14.6876 10.629 14.696 10.7553C14.6962 10.758 14.6964 10.7606 14.6966 10.7633C14.7048 10.8703 14.7133 10.9811 14.7338 11.0879C14.7632 11.2561 14.7925 11.4245 14.8218 11.593C14.926 12.1921 15.0304 12.7926 15.1451 13.3905C15.2584 13.9925 15.3843 14.5903 15.5186 15.1839C15.5648 15.3733 15.6403 15.5627 15.7326 15.7395C15.804 15.8742 15.9047 15.8616 15.997 15.7395L15.997 15.7395C16.039 15.689 16.081 15.6385 16.102 15.5796Z" fill="#FC461E"/>
</g>
<rect x="0.5" y="0.5" width="45" height="31" rx="3.5" stroke="#595C60"/>
</g>
</svg>
