<svg width="46" height="32" viewBox="0 0 46 32" fill="none" xmlns="http://www.w3.org/2000/svg">
<g id="Payment Icons">
<rect x="0.5" y="0.5" width="45" height="31" rx="3.5" fill="#292D32" fill-opacity="0.48"/>
<g id="GooglePay">
<g id="Pay">
<path id="Union" fill-rule="evenodd" clip-rule="evenodd" d="M21.4108 20.7039V16.7911H23.4303C24.2579 16.7911 24.9563 16.5138 25.5258 15.9669L25.6624 15.8282C26.7025 14.696 26.6342 12.9321 25.5258 11.8846C24.9715 11.33 24.2123 11.0296 23.4303 11.045H20.1885V20.7039H21.4108ZM21.411 15.6048V12.2311H23.4612C23.9016 12.2311 24.3192 12.4006 24.6305 12.7087C25.2912 13.3557 25.3063 14.434 24.6685 15.1041C24.3572 15.4353 23.9168 15.6202 23.4612 15.6048H21.411ZM31.3639 14.6111C30.84 14.1259 30.1264 13.8794 29.2229 13.8794C28.0613 13.8794 27.1882 14.3107 26.6112 15.1657L27.6893 15.8512C28.0841 15.2658 28.6231 14.9731 29.3064 14.9731C29.7392 14.9731 30.1567 15.1349 30.4832 15.4276C30.8021 15.7049 30.9843 16.1054 30.9843 16.5291V16.814C30.5136 16.5522 29.9214 16.4135 29.1925 16.4135C28.3422 16.4135 27.6589 16.6138 27.1502 17.022C26.6416 17.4302 26.3834 17.9694 26.3834 18.6549C26.3683 19.2788 26.634 19.8719 27.1047 20.2725C27.583 20.7038 28.1904 20.9195 28.904 20.9195C29.7468 20.9195 30.4149 20.5421 30.9235 19.7872H30.9767V20.7038H32.1459V16.6292C32.1459 15.7742 31.8877 15.0964 31.3639 14.6111ZM28.046 19.4868C27.7954 19.3019 27.6436 19.0015 27.6436 18.678C27.6436 18.316 27.8106 18.0156 28.1371 17.7768C28.4712 17.5381 28.8889 17.4148 29.3824 17.4148C30.0658 17.4071 30.5974 17.5612 30.977 17.8693C30.977 18.393 30.772 18.8475 30.3696 19.2326C30.0051 19.6023 29.5115 19.8103 28.9952 19.8103C28.6535 19.818 28.3194 19.7025 28.046 19.4868ZM34.7735 23.6078L38.858 14.0952H37.5294L35.639 18.84H35.6162L33.6802 14.0952H32.3516L35.0316 20.2803L33.5132 23.6078H34.7735Z" fill="#A0A1A4"/>
</g>
<g id="G">
<path id="Blue" d="M17.1905 15.9437C17.1905 15.5662 17.1601 15.1888 17.0994 14.8191H11.9443V16.9527H14.8977C14.7762 17.6382 14.3814 18.2544 13.8044 18.6395V20.026H15.5658C16.5983 19.0632 17.1905 17.6382 17.1905 15.9437Z" fill="#4285F4"/>
<path id="Green" d="M11.945 21.3664C13.4179 21.3664 14.663 20.8734 15.5664 20.0262L13.8051 18.6397C13.3116 18.9786 12.6814 19.1712 11.945 19.1712C10.5177 19.1712 9.31053 18.193 8.87778 16.8835H7.06326V18.3162C7.9895 20.1879 9.87993 21.3664 11.945 21.3664Z" fill="#34A853"/>
<path id="Yellow" d="M8.87797 16.8836C8.65017 16.1981 8.65017 15.4509 8.87797 14.7577V13.3328H7.06316C6.28105 14.8964 6.28105 16.745 7.06316 18.3086L8.87797 16.8836Z" fill="#FBBC04"/>
<path id="Red" d="M11.945 12.47C12.727 12.4546 13.4786 12.755 14.0404 13.3018L15.6044 11.7151C14.6098 10.7754 13.304 10.2593 11.945 10.2747C9.87993 10.2747 7.9895 11.4609 7.06326 13.3326L8.87778 14.7653C9.31053 13.4482 10.5177 12.47 11.945 12.47Z" fill="#EA4335"/>
</g>
</g>
<rect x="0.5" y="0.5" width="45" height="31" rx="3.5" stroke="#595C60"/>
</g>
</svg>
