<svg width="46" height="32" viewBox="0 0 46 32" fill="none" xmlns="http://www.w3.org/2000/svg">
<g id="Payment Icons">
<rect x="0.5" y="0.5" width="45" height="31" rx="3.5" fill="#292D32" fill-opacity="0.48"/>
<path id="AMEX" fill-rule="evenodd" clip-rule="evenodd" d="M8.12721 11.3333L3.88573 20.9956H8.96337L9.59285 19.455H11.0317L11.6612 20.9956H17.2502V19.8198L17.7483 20.9956H20.6394L21.1374 19.7949V20.9956H32.7611L34.1745 19.495L35.498 20.9956L41.4682 21.008L37.2133 16.1914L41.4682 11.3333H35.5906L34.2147 12.8061L32.9329 11.3333H20.2878L19.202 13.8272L18.0907 11.3333H13.0236V12.4691L12.46 11.3333H8.12721ZM9.11015 12.7053H11.5852L14.3986 19.2574V12.7053H17.11L19.283 17.4031L21.2856 12.7053H23.9835V19.6387H22.3419L22.3285 14.2057L19.9353 19.6387H18.4668L16.0602 14.2057V19.6387H12.6831L12.0429 18.0843H8.58401L7.94511 19.6373H6.13573L9.11015 12.7053ZM32.1602 12.7053H25.4853V19.6346H32.0569L34.175 17.3381L36.2165 19.6346H38.3507L35.2488 16.19L38.3507 12.7053H36.3091L34.2018 14.9754L32.1602 12.7053ZM10.3134 13.8784L9.17381 16.6474H11.4516L10.3134 13.8784ZM27.1328 15.4065V14.1409V14.1396H31.2977L33.1151 16.1638L31.2172 18.199H27.1328V16.8172H30.7742V15.4065H27.1328Z" fill="#A0A1A4"/>
<rect x="0.5" y="0.5" width="45" height="31" rx="3.5" stroke="#595C60"/>
</g>
</svg>
