<svg width="46" height="32" viewBox="0 0 46 32" fill="none" xmlns="http://www.w3.org/2000/svg">
<g id="Payment Icons">
<rect x="0.5" y="0.5" width="45" height="31" rx="5.5" fill="#292D32" fill-opacity="0.48"/>
<g id="Mastercard">
<path id="Left" fill-rule="evenodd" clip-rule="evenodd" d="M22.9052 22.4393C21.3265 23.7699 19.2786 24.5732 17.0409 24.5732C12.0478 24.5732 8 20.5736 8 15.6399C8 10.7061 12.0478 6.70654 17.0409 6.70654C19.2786 6.70654 21.3265 7.50983 22.9052 8.84049C24.4839 7.50983 26.5317 6.70654 28.7694 6.70654C33.7626 6.70654 37.8104 10.7061 37.8104 15.6399C37.8104 20.5736 33.7626 24.5732 28.7694 24.5732C26.5317 24.5732 24.4839 23.7699 22.9052 22.4393Z" fill="#ED0006"/>
<path id="Right" fill-rule="evenodd" clip-rule="evenodd" d="M22.9053 22.4392C24.8492 20.8006 26.0818 18.3625 26.0818 15.6399C26.0818 12.9173 24.8492 10.4791 22.9053 8.8406C24.484 7.50987 26.5319 6.70654 28.7697 6.70654C33.7628 6.70654 37.8106 10.7061 37.8106 15.6399C37.8106 20.5736 33.7628 24.5732 28.7697 24.5732C26.5319 24.5732 24.484 23.7699 22.9053 22.4392Z" fill="#F9A000"/>
<path id="Middle" fill-rule="evenodd" clip-rule="evenodd" d="M22.9052 22.4393C20.9612 20.8008 19.7285 18.3626 19.7285 15.6399C19.7285 12.9173 20.9612 10.4791 22.9051 8.84058C24.8491 10.4791 26.0818 12.9173 26.0818 15.64C26.0818 18.3626 24.8492 20.8008 22.9052 22.4393Z" fill="#FF5E00"/>
</g>
<rect x="0.5" y="0.5" width="45" height="31" rx="5.5" stroke="#595C60"/>
</g>
</svg>
