<svg width="31" height="36" viewBox="0 0 31 36" fill="none" xmlns="http://www.w3.org/2000/svg">
<g clip-path="url(#clip0_865_11354)">
<path d="M30.3074 18.5866L30.3432 4.4953L15.916 0.207886L16.1089 35.7649C30.0073 29.4123 30.3432 21.6735 30.3432 21.6735L28.6568 19.8085L30.3074 18.5866ZM21.018 6.94627L25.2483 8.21106V16.7001L21.018 15.4354V6.94627ZM25.2483 23.61C25.2483 23.61 23.4762 25.3536 21.018 26.9042V20.03L25.2483 21.2948V23.61Z" fill="url(#paint0_linear_865_11354)"/>
<path d="M14.5391 0.207886L0.169098 4.4953C0.161953 8.42543 0.161953 12.3413 0.154807 16.2786C0.147661 19.6513 0.190536 22.7525 1.97696 25.7609C3.7348 28.7049 6.53591 30.8558 9.32988 32.7565C10.2302 33.371 11.1592 33.9498 12.1096 34.4858C12.5669 34.743 14.1175 35.5648 14.6105 35.7649V30.4199C14.6105 30.4199 7.13615 26.5469 5.34973 21.2734L11.888 20.0157V15.3925L5.24969 16.6859V8.22535L9.5371 6.96771V12.4627L14.6105 11.198L14.5391 0.207886Z" fill="url(#paint1_linear_865_11354)"/>
<path d="M30.3074 18.5866L30.3432 4.4953L15.916 0.207886L16.1089 35.7649C30.0073 29.4123 30.3432 21.6735 30.3432 21.6735L28.6568 19.8085L30.3074 18.5866ZM21.018 6.94627L25.2483 8.21106V16.7001L21.018 15.4354V6.94627ZM25.2483 23.61C25.2483 23.61 23.4762 25.3536 21.018 26.9042V20.03L25.2483 21.2948V23.61Z" stroke="#FAB695" stroke-width="0.303835" stroke-miterlimit="10"/>
<path d="M14.5391 0.207886L0.169098 4.4953C0.161953 8.42543 0.161953 12.3413 0.154807 16.2786C0.147661 19.6513 0.190536 22.7525 1.97696 25.7609C3.7348 28.7049 6.53591 30.8558 9.32988 32.7565C10.2302 33.371 11.1592 33.9498 12.1096 34.4858C12.5669 34.743 14.1175 35.5648 14.6105 35.7649V30.4199C14.6105 30.4199 7.13615 26.5469 5.34973 21.2734L11.888 20.0157V15.3925L5.24969 16.6859V8.22535L9.5371 6.96771V12.4627L14.6105 11.198L14.5391 0.207886Z" stroke="#FAB695" stroke-width="0.303835" stroke-miterlimit="10"/>
</g>
<defs>
<linearGradient id="paint0_linear_865_11354" x1="3.63555" y1="34.0191" x2="30.5995" y2="4.04324" gradientUnits="userSpaceOnUse">
<stop stop-color="#F16332"/>
<stop offset="0.2119" stop-color="#F16635"/>
<stop offset="0.421" stop-color="#F26E3D"/>
<stop offset="0.6289" stop-color="#F37B4C"/>
<stop offset="0.835" stop-color="#F58D62"/>
<stop offset="1" stop-color="#F79E77"/>
</linearGradient>
<linearGradient id="paint1_linear_865_11354" x1="-1.17689" y1="29.6428" x2="25.7976" y2="-0.344784" gradientUnits="userSpaceOnUse">
<stop stop-color="#F16332"/>
<stop offset="0.2119" stop-color="#F16635"/>
<stop offset="0.421" stop-color="#F26E3D"/>
<stop offset="0.6289" stop-color="#F37B4C"/>
<stop offset="0.835" stop-color="#F58D62"/>
<stop offset="1" stop-color="#F79E77"/>
</linearGradient>
<clipPath id="clip0_865_11354">
<rect width="30.505" height="36" fill="white"/>
</clipPath>
</defs>
</svg>
