<svg width="209" height="32" viewBox="0 0 209 32" fill="none" xmlns="http://www.w3.org/2000/svg">
<path d="M208.003 11.3601C208.004 11.9482 207.917 12.5332 207.747 13.0961C207.46 14.0043 206.954 14.8283 206.275 15.4961L204.339 17.4321L197.011 24.7841C196.465 25.3334 195.815 25.769 195.1 26.0656C194.385 26.3622 193.617 26.514 192.843 26.5121H26.2109V5.47205H202.107C203.669 5.47204 205.168 6.09213 206.273 7.19612C207.379 8.3001 208.001 9.79773 208.003 11.3601Z" fill="url(#paint0_linear_311_17687)"/>
<path d="M28.9766 23.584V8.38403H201.921C202.704 8.38615 203.455 8.69893 204.008 9.25381C204.562 9.80869 204.873 10.5604 204.873 11.344C204.874 11.7319 204.798 12.1161 204.649 12.4745C204.501 12.8329 204.283 13.1583 204.009 13.432L194.745 22.696C194.471 22.9708 194.145 23.1887 193.787 23.337C193.429 23.4853 193.044 23.5611 192.657 23.56L28.9766 23.584Z" fill="url(#paint1_linear_311_17687)"/>
<path style="mix-blend-mode:multiply" opacity="0.5" d="M35.6094 22.848V9.14404H166.625C166.917 9.14404 167.206 9.20161 167.475 9.31348C167.745 9.42534 167.989 9.58928 168.195 9.7959C168.401 10.0025 168.564 10.2478 168.675 10.5176C168.786 10.7873 168.842 11.0764 168.841 11.368C168.848 11.6648 168.794 11.9599 168.683 12.235C168.571 12.5102 168.405 12.7597 168.193 12.968L158.929 22.232C158.721 22.4435 158.472 22.61 158.196 22.7215C157.921 22.8329 157.626 22.8869 157.329 22.88L35.6094 22.848Z" fill="url(#paint2_linear_311_17687)"/>
<path d="M29.9062 22.848V9.14404H160.914C161.504 9.14404 162.07 9.37835 162.487 9.79543C162.904 10.2125 163.138 10.7782 163.138 11.368C163.143 11.6646 163.088 11.9591 162.977 12.234C162.866 12.5089 162.7 12.7585 162.49 12.968L153.226 22.232C153.017 22.442 152.767 22.6075 152.492 22.7189C152.217 22.8302 151.923 22.885 151.626 22.88L29.9062 22.848Z" fill="url(#paint3_linear_311_17687)" stroke="#FFF811" stroke-width="0.25" stroke-miterlimit="10"/>
<path d="M16.1653 15.1084L9.626 8.56912C9.12925 8.07237 8.32387 8.07237 7.82712 8.56912L1.2878 15.1084C0.791057 15.6052 0.79104 16.4106 1.28779 16.9073L7.82711 23.4467C8.32386 23.9434 9.12925 23.9434 9.626 23.4466L16.1653 16.9073C16.6621 16.4106 16.6621 15.6052 16.1653 15.1084Z" fill="url(#paint4_linear_311_17687)"/>
<path d="M37.84 15.984C37.84 20.2275 36.1543 24.2972 33.1537 27.2978C30.1532 30.2983 26.0835 31.984 21.84 31.984C18.6357 31.9901 15.5043 31.0281 12.856 29.224C11.5925 28.3692 10.4583 27.3373 9.48804 26.16C7.12187 23.2971 5.82888 19.6982 5.83204 15.984C5.83204 11.7406 7.51776 7.67091 10.5183 4.67033C13.5189 1.66975 17.5886 -0.0159514 21.832 -0.0159514C25.2343 -0.0235693 28.5491 1.06172 31.288 3.08004C33.8574 4.96063 35.8072 7.56505 36.888 10.56C37.5165 12.2994 37.8386 14.1346 37.84 15.984Z" fill="url(#paint5_linear_311_17687)"/>
<path d="M21.8355 29.8161C29.4659 29.8161 35.6515 23.6304 35.6515 16.0001C35.6515 8.36972 29.4659 2.18408 21.8355 2.18408C14.2052 2.18408 8.01953 8.36972 8.01953 16.0001C8.01953 23.6304 14.2052 29.8161 21.8355 29.8161Z" fill="url(#paint6_linear_311_17687)"/>
<path d="M16.1385 9.46405C15.8986 9.09929 15.5456 8.82341 15.1337 8.67887C14.7217 8.53433 14.2737 8.52913 13.8585 8.66405C12.2585 9.06405 11.4585 13.136 16.8345 15.912V14.888C16.8345 14.888 13.3545 13.2881 13.3945 10.5201C13.3945 10.5201 13.4585 9.52805 14.1545 9.26405C14.8505 9.00005 15.9705 9.72804 16.3065 11.08L16.1385 9.46405Z" fill="url(#paint7_linear_311_17687)" stroke="#FFF811" stroke-width="0.25" stroke-miterlimit="10"/>
<path d="M27.5358 9.46412C27.7761 9.09769 28.1305 8.82071 28.5442 8.67608C28.9578 8.53146 29.4076 8.52725 29.8238 8.66412C31.4238 9.06412 32.2238 13.1361 26.8398 15.9121V14.8881C26.8398 14.8881 30.3198 13.2881 30.2878 10.5201C30.2878 10.5201 30.2158 9.52812 29.4878 9.26412C28.7598 9.00012 27.6718 9.72811 27.3358 11.0801L27.5358 9.46412Z" fill="url(#paint8_linear_311_17687)" stroke="#FFF811" stroke-width="0.25" stroke-miterlimit="10"/>
<path d="M22.4652 22.248V18.504H21.2092V22.248C21.2116 22.7598 21.0704 23.262 20.8018 23.6976C20.5331 24.1331 20.1476 24.4846 19.6892 24.712C18.5494 25.2381 17.5532 26.0311 16.7852 27.024H26.8892C26.1211 26.0311 25.1249 25.2381 23.9852 24.712C23.5267 24.4846 23.1412 24.1331 22.8725 23.6976C22.6038 23.262 22.4627 22.7598 22.4652 22.248Z" fill="url(#paint9_linear_311_17687)" stroke="#FFF811" stroke-width="0.25" stroke-miterlimit="10"/>
<path d="M15.7539 6.1521V14.0401C15.7539 16.9361 19.3139 19.4161 20.9859 20.4401H22.6899C24.3699 19.4321 27.9219 16.9521 27.9219 14.0401V6.1521H15.7539Z" fill="url(#paint10_linear_311_17687)" stroke="#FFF811" stroke-width="0.25" stroke-miterlimit="10"/>
<path d="M26.914 27.608H16.77C16.6321 27.608 16.4998 27.5532 16.4023 27.4557C16.3048 27.3582 16.25 27.2259 16.25 27.088C16.25 27.0201 16.2635 26.9528 16.2897 26.8902C16.316 26.8276 16.3544 26.7708 16.4028 26.7231C16.4512 26.6755 16.5086 26.6379 16.5716 26.6127C16.6347 26.5874 16.7021 26.5749 16.77 26.576H26.914C27.0498 26.576 27.18 26.6299 27.2761 26.726C27.3721 26.822 27.426 26.9522 27.426 27.088C27.426 27.2245 27.3723 27.3556 27.2765 27.4529C27.1807 27.5502 27.0505 27.6059 26.914 27.608Z" fill="url(#paint11_linear_311_17687)" stroke="#FFF811" stroke-width="0.25" stroke-miterlimit="10"/>
<path d="M27.9453 6.76809H15.7293C15.6481 6.76917 15.5676 6.75397 15.4923 6.72339C15.4171 6.69281 15.3488 6.64748 15.2914 6.59006C15.2339 6.53265 15.1886 6.46431 15.158 6.38909C15.1275 6.31386 15.1123 6.23327 15.1133 6.15208C15.1123 6.07051 15.1274 5.98955 15.1579 5.91389C15.1884 5.83823 15.2336 5.76938 15.2909 5.71133C15.3482 5.65328 15.4165 5.60719 15.4917 5.57573C15.567 5.54428 15.6478 5.52807 15.7293 5.52808H27.9453C28.0269 5.52807 28.1077 5.54428 28.1829 5.57573C28.2582 5.60719 28.3265 5.65328 28.3838 5.71133C28.4411 5.76938 28.4863 5.83823 28.5168 5.91389C28.5472 5.98955 28.5624 6.07051 28.5613 6.15208C28.5624 6.23327 28.5472 6.31386 28.5166 6.38909C28.4861 6.46431 28.4407 6.53265 28.3833 6.59006C28.3259 6.64748 28.2576 6.69281 28.1823 6.72339C28.1071 6.75397 28.0265 6.76917 27.9453 6.76809Z" fill="url(#paint12_linear_311_17687)" stroke="#FFF811" stroke-width="0.25" stroke-miterlimit="10"/>
<defs>
<linearGradient id="paint0_linear_311_17687" x1="117.115" y1="4.16805" x2="117.115" y2="26.9441" gradientUnits="userSpaceOnUse">
<stop stop-color="#70FFDB"/>
<stop offset="0.01" stop-color="#70F6D9"/>
<stop offset="0.09" stop-color="#6DC3CF"/>
<stop offset="0.17" stop-color="#6B95C5"/>
<stop offset="0.26" stop-color="#696DBD"/>
<stop offset="0.35" stop-color="#674BB6"/>
<stop offset="0.44" stop-color="#6530B1"/>
<stop offset="0.54" stop-color="#641AAC"/>
<stop offset="0.66" stop-color="#640BA9"/>
<stop offset="0.79" stop-color="#6303A8"/>
<stop offset="1" stop-color="#6300A7"/>
</linearGradient>
<linearGradient id="paint1_linear_311_17687" x1="116.929" y1="7.47203" x2="116.929" y2="23.888" gradientUnits="userSpaceOnUse">
<stop stop-color="#6300A7"/>
<stop offset="0.19" stop-color="#5A0399"/>
<stop offset="0.55" stop-color="#420B75"/>
<stop offset="1" stop-color="#201741"/>
</linearGradient>
<linearGradient id="paint2_linear_311_17687" x1="102.225" y1="8.29604" x2="102.225" y2="23.128" gradientUnits="userSpaceOnUse">
<stop stop-color="#6300A7"/>
<stop offset="0.26" stop-color="#4C0884"/>
<stop offset="0.58" stop-color="#34105F"/>
<stop offset="0.84" stop-color="#251549"/>
<stop offset="1" stop-color="#201741"/>
</linearGradient>
<linearGradient id="paint3_linear_311_17687" x1="96.5222" y1="8.29604" x2="96.5222" y2="23.128" gradientUnits="userSpaceOnUse">
<stop stop-color="#FFF811"/>
<stop offset="0.14" stop-color="#FFD41C"/>
<stop offset="0.26" stop-color="#FFBA23"/>
<stop offset="0.33" stop-color="#FFB026"/>
<stop offset="0.36" stop-color="#FAAB26"/>
<stop offset="0.66" stop-color="#C07421"/>
<stop offset="0.88" stop-color="#9D521E"/>
<stop offset="1" stop-color="#8F451D"/>
</linearGradient>
<linearGradient id="paint4_linear_311_17687" x1="1.0567" y1="16.0055" x2="14.6407" y2="16.0056" gradientUnits="userSpaceOnUse">
<stop stop-color="#70FFDB"/>
<stop offset="0.04" stop-color="#6EDDD4"/>
<stop offset="0.1" stop-color="#6CAFCB"/>
<stop offset="0.17" stop-color="#6A85C2"/>
<stop offset="0.24" stop-color="#6861BB"/>
<stop offset="0.31" stop-color="#6643B5"/>
<stop offset="0.39" stop-color="#652AB0"/>
<stop offset="0.49" stop-color="#6417AC"/>
<stop offset="0.59" stop-color="#640AA9"/>
<stop offset="0.73" stop-color="#6302A7"/>
<stop offset="1" stop-color="#6300A7"/>
</linearGradient>
<linearGradient id="paint5_linear_311_17687" x1="33.08" y1="27.24" x2="10.6881" y2="4.84803" gradientUnits="userSpaceOnUse">
<stop stop-color="#6300A7"/>
<stop offset="0.21" stop-color="#6303A8"/>
<stop offset="0.34" stop-color="#640BA9"/>
<stop offset="0.46" stop-color="#641AAC"/>
<stop offset="0.56" stop-color="#6530B1"/>
<stop offset="0.65" stop-color="#674BB6"/>
<stop offset="0.74" stop-color="#696DBD"/>
<stop offset="0.83" stop-color="#6B95C5"/>
<stop offset="0.91" stop-color="#6DC3CF"/>
<stop offset="0.99" stop-color="#70F6D9"/>
<stop offset="1" stop-color="#70FFDB"/>
</linearGradient>
<linearGradient id="paint6_linear_311_17687" x1="12.0035" y1="6.16808" x2="31.8355" y2="26.0001" gradientUnits="userSpaceOnUse">
<stop stop-color="#6300A7"/>
<stop offset="0.26" stop-color="#4C0884"/>
<stop offset="0.58" stop-color="#34105F"/>
<stop offset="0.84" stop-color="#251549"/>
<stop offset="1" stop-color="#201741"/>
</linearGradient>
<linearGradient id="paint7_linear_311_17687" x1="12.5625" y1="12.256" x2="16.3465" y2="12.256" gradientUnits="userSpaceOnUse">
<stop stop-color="#FFF811"/>
<stop offset="0.14" stop-color="#FFD41C"/>
<stop offset="0.26" stop-color="#FFBA23"/>
<stop offset="0.33" stop-color="#FFB026"/>
<stop offset="0.45" stop-color="#FBAC26"/>
<stop offset="0.58" stop-color="#EEA025"/>
<stop offset="0.71" stop-color="#D88B23"/>
<stop offset="0.85" stop-color="#BB6F20"/>
<stop offset="0.98" stop-color="#944A1D"/>
<stop offset="1" stop-color="#8F451D"/>
</linearGradient>
<linearGradient id="paint8_linear_311_17687" x1="31.1118" y1="12.2561" x2="27.3278" y2="12.2561" gradientUnits="userSpaceOnUse">
<stop stop-color="#FFF811"/>
<stop offset="0.14" stop-color="#FFD41C"/>
<stop offset="0.26" stop-color="#FFBA23"/>
<stop offset="0.33" stop-color="#FFB026"/>
<stop offset="0.45" stop-color="#FBAC26"/>
<stop offset="0.58" stop-color="#EEA025"/>
<stop offset="0.71" stop-color="#D88B23"/>
<stop offset="0.85" stop-color="#BB6F20"/>
<stop offset="0.98" stop-color="#944A1D"/>
<stop offset="1" stop-color="#8F451D"/>
</linearGradient>
<linearGradient id="paint9_linear_311_17687" x1="21.8412" y1="27.304" x2="21.8412" y2="18.416" gradientUnits="userSpaceOnUse">
<stop stop-color="#FFF811"/>
<stop offset="0.14" stop-color="#FFD41C"/>
<stop offset="0.26" stop-color="#FFBA23"/>
<stop offset="0.33" stop-color="#FFB026"/>
<stop offset="0.36" stop-color="#FAAB26"/>
<stop offset="0.66" stop-color="#C07421"/>
<stop offset="0.88" stop-color="#9D521E"/>
<stop offset="1" stop-color="#8F451D"/>
</linearGradient>
<linearGradient id="paint10_linear_311_17687" x1="15.6979" y1="13.2881" x2="28.0899" y2="13.2881" gradientUnits="userSpaceOnUse">
<stop stop-color="#FFF811"/>
<stop offset="0.14" stop-color="#FFD41C"/>
<stop offset="0.26" stop-color="#FFBA23"/>
<stop offset="0.33" stop-color="#FFB026"/>
<stop offset="0.36" stop-color="#FAAB26"/>
<stop offset="0.66" stop-color="#C07421"/>
<stop offset="0.88" stop-color="#9D521E"/>
<stop offset="1" stop-color="#8F451D"/>
</linearGradient>
<linearGradient id="paint11_linear_311_17687" x1="21.842" y1="26.448" x2="21.842" y2="27.992" gradientUnits="userSpaceOnUse">
<stop stop-color="#FFF811"/>
<stop offset="0.14" stop-color="#FFD41C"/>
<stop offset="0.26" stop-color="#FFBA23"/>
<stop offset="0.33" stop-color="#FFB026"/>
<stop offset="0.36" stop-color="#FAAB26"/>
<stop offset="0.66" stop-color="#C07421"/>
<stop offset="0.88" stop-color="#9D521E"/>
<stop offset="1" stop-color="#8F451D"/>
</linearGradient>
<linearGradient id="paint12_linear_311_17687" x1="21.8413" y1="5.38407" x2="21.8413" y2="7.2321" gradientUnits="userSpaceOnUse">
<stop stop-color="#FFF811"/>
<stop offset="0.14" stop-color="#FFD41C"/>
<stop offset="0.26" stop-color="#FFBA23"/>
<stop offset="0.33" stop-color="#FFB026"/>
<stop offset="0.36" stop-color="#FAAB26"/>
<stop offset="0.66" stop-color="#C07421"/>
<stop offset="0.88" stop-color="#9D521E"/>
<stop offset="1" stop-color="#8F451D"/>
</linearGradient>
</defs>
</svg>
