<svg width="97" height="40" viewBox="0 0 97 40" fill="none" xmlns="http://www.w3.org/2000/svg">
<path id="ApplePay" fill-rule="evenodd" clip-rule="evenodd" d="M17.68 5.157C16.5461 6.50809 14.7317 7.57375 12.9174 7.42151C12.6906 5.59468 13.5788 3.65367 14.6183 2.45481C15.7523 1.06565 17.7367 0.076118 19.3432 0C19.5322 1.90295 18.7951 3.76784 17.68 5.157ZM19.323 7.7831C17.7246 7.69047 16.2662 8.26711 15.0881 8.73288C14.33 9.03261 13.688 9.28643 13.1996 9.28643C12.6515 9.28643 11.9831 9.01904 11.2325 8.71882C10.249 8.32544 9.12467 7.87569 7.94558 7.89728C5.24296 7.93534 2.72933 9.47673 1.34967 11.9315C-1.48524 16.8411 0.612597 24.1104 3.35302 28.1066C4.69488 30.0857 6.30133 32.255 8.41807 32.1789C9.34931 32.1435 10.0192 31.8573 10.7124 31.5611C11.5106 31.2201 12.3397 30.8659 13.6343 30.8659C14.884 30.8659 15.6769 31.2109 16.438 31.5421C17.1617 31.857 17.8567 32.1594 18.8884 32.1408C21.0807 32.1028 22.4604 30.1618 23.8022 28.1827C25.2503 26.0587 25.8867 23.9857 25.9832 23.6711C25.9888 23.6531 25.9925 23.6408 25.9946 23.6347C25.9922 23.6323 25.9743 23.6241 25.9428 23.6095C25.4587 23.3864 21.7588 21.6809 21.7233 17.1076C21.6876 13.2689 24.658 11.324 25.1256 11.0178L25.1256 11.0178C25.154 10.9992 25.1732 10.9866 25.1819 10.9801C23.2919 8.16369 20.3436 7.85922 19.323 7.7831ZM34.4989 31.9313V2.2643H45.555C51.2627 2.2643 55.2505 6.22244 55.2505 12.0074C55.2505 17.7924 51.1871 21.7886 45.4038 21.7886H39.0725V31.9313H34.4989ZM39.0725 6.14669H44.3454C48.3143 6.14669 50.5822 8.27799 50.5822 12.0268C50.5822 15.7756 48.3143 17.9259 44.3265 17.9259H39.0725V6.14669ZM70.3527 28.3728C69.1431 30.6944 66.4783 32.1597 63.6056 32.1597C59.3532 32.1597 56.386 29.6098 56.386 25.7658C56.386 21.9599 59.2587 19.7715 64.5695 19.448L70.2771 19.1055V17.4689C70.2771 15.0522 68.7085 13.7392 65.9113 13.7392C63.6056 13.7392 61.9235 14.938 61.5834 16.7649H57.4633C57.5956 12.9209 61.1865 10.1236 66.0436 10.1236C71.2788 10.1236 74.6807 12.8828 74.6807 17.1645V31.9313H70.4472V28.3728H70.3527ZM64.8327 28.6391C62.3946 28.6391 60.8449 27.4593 60.8449 25.6515C60.8449 23.7866 62.3379 22.7019 65.1917 22.5307L70.2757 22.2072V23.8818C70.2757 26.6601 67.9322 28.6391 64.8327 28.6391ZM88.7212 33.0924C86.8879 38.2875 84.7901 40.0001 80.3298 40.0001C79.9896 40.0001 78.8556 39.9621 78.5911 39.886V36.3274C78.8745 36.3655 79.5738 36.4036 79.9329 36.4036C81.9552 36.4036 83.0891 35.5472 83.7884 33.3208L84.2042 32.0077L76.4554 10.4093H81.237L86.6233 27.9354H86.7178L92.1042 10.4093H96.7534L88.7212 33.0924Z" fill="white"/>
</svg>
