<svg width="98" height="40" viewBox="0 0 98 40" fill="none" xmlns="http://www.w3.org/2000/svg">
<g id="GooglePay">
<g id="Pay">
<path id="Union" fill-rule="evenodd" clip-rule="evenodd" d="M44.8037 31.2881V19.5494H50.8622C53.3448 19.5494 55.4403 18.7176 57.1485 17.0769L57.5585 16.661C60.6788 13.2642 60.4738 7.9726 57.1485 4.82998C55.4858 3.16624 53.2082 2.26505 50.8622 2.31126H41.1367V31.2881H44.8037ZM44.8047 15.9908V5.86973H50.9553C52.2765 5.86973 53.5294 6.37809 54.4634 7.30239C56.4453 9.24342 56.4908 12.4785 54.5773 14.4888C53.6433 15.4824 52.3221 16.037 50.9553 15.9908H44.8047ZM74.663 13.0097C73.0915 11.5539 70.9505 10.8145 68.2401 10.8145C64.7553 10.8145 62.1361 12.1085 60.4051 14.6735L63.6393 16.73C64.8237 14.9739 66.4408 14.0958 68.4907 14.0958C69.7889 14.0958 71.0416 14.581 72.021 15.4591C72.9776 16.291 73.5242 17.4926 73.5242 18.7635V19.6185C72.1121 18.8328 70.3355 18.4169 68.149 18.4169C65.5981 18.4169 63.5482 19.0177 62.0222 20.2424C60.4962 21.4671 59.7218 23.0846 59.7218 25.1411C59.6762 27.0129 60.4734 28.7921 61.8855 29.9937C63.3204 31.2877 65.1425 31.9348 67.2835 31.9348C69.8117 31.9348 71.816 30.8025 73.342 28.538H73.5014V31.2877H77.009V19.0639C77.009 16.4989 76.2346 14.4655 74.663 13.0097ZM64.7101 27.6367C63.9583 27.0821 63.5027 26.1809 63.5027 25.2104C63.5027 24.1243 64.0039 23.2231 64.9834 22.5068C65.9858 21.7905 67.2387 21.4208 68.7194 21.4208C70.7696 21.3976 72.3641 21.8598 73.5031 22.7841C73.5031 24.3554 72.8881 25.7187 71.6807 26.8741C70.5873 27.9833 69.1066 28.6072 67.5576 28.6072C66.5325 28.6303 65.5302 28.2837 64.7101 27.6367ZM84.8895 39.9997L97.1432 11.462H93.1573L87.486 25.6962H87.4177L81.6097 11.462H77.6238L85.6639 30.0173L81.1086 39.9997H84.8895Z" fill="white"/>
</g>
<g id="G">
<path id="Blue" d="M32.1408 17.0078C32.1408 15.8756 32.0497 14.7433 31.8675 13.6342H16.4023V20.0349H25.2623C24.8979 22.0915 23.7136 23.9401 21.9825 25.0955V29.2548H27.2667C30.3642 26.3664 32.1408 22.0915 32.1408 17.0078Z" fill="#4285F4"/>
<path id="Green" d="M16.4069 33.2761C20.8255 33.2761 24.5608 31.7972 27.2712 29.2554L21.9871 25.096C20.5067 26.1128 18.6162 26.6904 16.4069 26.6904C12.125 26.6904 8.50352 23.7558 7.20527 19.8275H1.76172V24.1255C4.54043 29.7406 10.2117 33.2761 16.4069 33.2761Z" fill="#34A853"/>
<path id="Yellow" d="M7.20417 19.8271C6.52077 17.7705 6.52077 15.5291 7.20417 13.4494V9.17456H1.75975C-0.586585 13.8654 -0.586585 19.4112 1.75975 24.102L7.20417 19.8271Z" fill="#FBBC04"/>
<path id="Red" d="M16.4069 6.58664C18.7529 6.54043 21.0077 7.44162 22.6932 9.08225L27.3851 4.32211C24.4014 1.50299 20.4839 -0.0452093 16.4069 0.00100566C10.2117 0.00100566 4.54043 3.55956 1.76172 9.17468L7.20527 13.4727C8.50352 9.52129 12.125 6.58664 16.4069 6.58664Z" fill="#EA4335"/>
</g>
</g>
</svg>
