<svg width="52" height="40" viewBox="0 0 52 40" fill="none" xmlns="http://www.w3.org/2000/svg">
<g id="jcb-emblem-logo 2" clip-path="url(#clip0_311_19450)">
<path id="Vector" d="M51.2955 32.0872C51.2955 36.4467 47.7457 39.9966 43.3862 39.9966H0.351562V8.67038C0.351562 4.31087 3.90145 0.760986 8.26096 0.760986H51.2955V32.0872Z" fill="white"/>
<path id="Vector_2" d="M37.2812 24.0532H40.5509C40.6443 24.0532 40.8623 24.0221 40.9557 24.0221C41.5785 23.8975 42.1078 23.337 42.1078 22.5585C42.1078 21.8112 41.5785 21.2507 40.9557 21.095C40.8623 21.0638 40.6754 21.0638 40.5509 21.0638H37.2812V24.0532Z" fill="url(#paint0_linear_311_19450)"/>
<path id="Vector_3" d="M40.179 3.40784C37.065 3.40784 34.5116 5.93012 34.5116 9.0752V14.9605H42.5144C42.7013 14.9605 42.9192 14.9605 43.0749 14.9917C44.881 15.0851 46.22 16.0193 46.22 17.6385C46.22 18.9152 45.317 20.0051 43.6354 20.2231V20.2854C45.4727 20.4099 46.8739 21.4375 46.8739 23.0256C46.8739 24.7383 45.317 25.8593 43.2618 25.8593H34.4805V37.3809H42.7947C45.9086 37.3809 48.462 34.8586 48.462 31.7135V3.40784H40.179Z" fill="url(#paint1_linear_311_19450)"/>
<path id="Vector_4" d="M41.703 18.0122C41.703 17.2649 41.1737 16.7666 40.5509 16.6732C40.4886 16.6732 40.3329 16.6421 40.2395 16.6421H37.2812V19.3824H40.2395C40.3329 19.3824 40.5197 19.3824 40.5509 19.3512C41.1737 19.2578 41.703 18.7596 41.703 18.0122Z" fill="url(#paint2_linear_311_19450)"/>
<path id="Vector_5" d="M8.85085 3.40784C5.73691 3.40784 3.18348 5.93012 3.18348 9.0752V23.0568C4.77159 23.8353 6.42198 24.3335 8.07236 24.3335C10.0341 24.3335 11.0929 23.1502 11.0929 21.5309V14.9294H15.9506V21.4998C15.9506 24.0532 14.3625 26.1396 8.9754 26.1396C5.70577 26.1396 3.15234 25.4234 3.15234 25.4234V37.3497H11.4666C14.5805 37.3497 17.1339 34.8274 17.1339 31.6824V3.40784H8.85085Z" fill="url(#paint3_linear_311_19450)"/>
<path id="Vector_6" d="M24.515 3.40784C21.4011 3.40784 18.8477 5.93012 18.8477 9.0752V16.4864C20.2801 15.2719 22.7712 14.4934 26.7882 14.6803C28.9368 14.7737 31.2411 15.3653 31.2411 15.3653V17.7631C30.089 17.1714 28.7188 16.6421 26.9439 16.5175C23.8922 16.2995 22.055 17.7942 22.055 20.4099C22.055 23.0568 23.8922 24.5515 26.9439 24.3023C28.7188 24.1778 30.089 23.6173 31.2411 23.0568V25.4545C31.2411 25.4545 28.9679 26.0461 26.7882 26.1396C22.7712 26.3264 20.2801 25.5479 18.8477 24.3335V37.412H27.1619C30.2758 37.412 32.8292 34.8897 32.8292 31.7446V3.40784H24.515Z" fill="url(#paint4_linear_311_19450)"/>
</g>
<defs>
<linearGradient id="paint0_linear_311_19450" x1="34.5046" y1="22.5623" x2="48.498" y2="22.5623" gradientUnits="userSpaceOnUse">
<stop stop-color="#007940"/>
<stop offset="0.229" stop-color="#00873F"/>
<stop offset="0.743" stop-color="#40A737"/>
<stop offset="1" stop-color="#5CB531"/>
</linearGradient>
<linearGradient id="paint1_linear_311_19450" x1="34.506" y1="20.3807" x2="48.5003" y2="20.3807" gradientUnits="userSpaceOnUse">
<stop stop-color="#007940"/>
<stop offset="0.229" stop-color="#00873F"/>
<stop offset="0.743" stop-color="#40A737"/>
<stop offset="1" stop-color="#5CB531"/>
</linearGradient>
<linearGradient id="paint2_linear_311_19450" x1="34.5042" y1="18.0082" x2="48.498" y2="18.0082" gradientUnits="userSpaceOnUse">
<stop stop-color="#007940"/>
<stop offset="0.229" stop-color="#00873F"/>
<stop offset="0.743" stop-color="#40A737"/>
<stop offset="1" stop-color="#5CB531"/>
</linearGradient>
<linearGradient id="paint3_linear_311_19450" x1="3.17694" y1="20.3807" x2="17.3868" y2="20.3807" gradientUnits="userSpaceOnUse">
<stop stop-color="#1F286F"/>
<stop offset="0.475" stop-color="#004E94"/>
<stop offset="0.826" stop-color="#0066B1"/>
<stop offset="1" stop-color="#006FBC"/>
</linearGradient>
<linearGradient id="paint4_linear_311_19450" x1="18.767" y1="20.3807" x2="32.5683" y2="20.3807" gradientUnits="userSpaceOnUse">
<stop stop-color="#6C2C2F"/>
<stop offset="0.173" stop-color="#882730"/>
<stop offset="0.573" stop-color="#BE1833"/>
<stop offset="0.859" stop-color="#DC0436"/>
<stop offset="1" stop-color="#E60039"/>
</linearGradient>
<clipPath id="clip0_311_19450">
<rect width="51.2865" height="40" fill="white" transform="translate(0.359375)"/>
</clipPath>
</defs>
</svg>
