<svg width="65" height="40" viewBox="0 0 65 40" fill="none" xmlns="http://www.w3.org/2000/svg">
<g id="Mastercard svg" clip-path="url(#clip0_311_19405)">
<g id="Group">
<g id="Group_2">
<path id="Vector" d="M41.2632 4.27783H23.7422V35.7223H41.2632V4.27783Z" fill="#FF5F00"/>
<path id="Vector_2" d="M24.8542 20.0001C24.8542 13.889 27.691 8.05566 32.4745 4.27788C23.7974 -2.55545 11.2268 -1.05545 4.3852 7.66677C-2.45634 16.3334 -0.954538 28.889 7.77817 35.7223C15.0647 41.4445 25.2436 41.4445 32.5301 35.7223C27.691 31.9446 24.8542 26.1112 24.8542 20.0001Z" fill="#EB001B"/>
<path id="Vector_3" d="M64.9034 20.0001C64.9034 31.0557 55.9482 40.0001 44.8794 40.0001C40.374 40.0001 36.0355 38.5001 32.5312 35.7223C41.2083 28.889 42.7101 16.3334 35.8686 7.61122C34.8674 6.389 33.7549 5.22233 32.5312 4.27788C41.2083 -2.55545 53.8346 -1.05545 60.6205 7.66677C63.4016 11.1668 64.9034 15.5001 64.9034 20.0001Z" fill="#F79E1B"/>
<path id="Vector_4" d="M63.0104 32.389V31.7223H63.2886V31.6112H62.6211V31.7223H62.8992V32.389H63.0104ZM64.2898 32.389V31.6112H64.0673L63.8448 32.1668L63.6223 31.6112H63.3998V32.389H63.5667V31.7779L63.7892 32.2779H63.956L64.1785 31.7779V32.389H64.2898Z" fill="#F79E1B"/>
</g>
</g>
</g>
<defs>
<clipPath id="clip0_311_19405">
<rect width="64.8" height="40" fill="white" transform="translate(0.101562)"/>
</clipPath>
</defs>
</svg>
