<svg width="32" height="40" viewBox="0 0 32 40" fill="none" xmlns="http://www.w3.org/2000/svg">
<g id="paypal-3 1" clip-path="url(#clip0_311_19416)">
<path id="Vector" d="M9.20352 37.1073L9.83965 33.0667L8.42264 33.0339H1.65625L6.35854 3.21819C6.37254 3.12709 6.41881 3.04405 6.48892 2.98422C6.55903 2.92438 6.6483 2.89173 6.74047 2.89222H18.1496C21.9372 2.89222 24.551 3.68039 25.9158 5.23607C26.5555 5.96586 26.963 6.72849 27.1601 7.56775C27.3668 8.44837 27.3705 9.50049 27.1686 10.7837L27.154 10.8774V11.6996L27.7938 12.0621C28.2822 12.3095 28.7212 12.6442 29.0891 13.0497C29.6365 13.6737 29.9904 14.4667 30.14 15.4069C30.2945 16.3739 30.2434 17.5246 29.9904 18.8272C29.6985 20.3257 29.2266 21.6309 28.5892 22.6988C28.0269 23.6555 27.2708 24.4841 26.3694 25.1314C25.5229 25.7323 24.517 26.1884 23.3797 26.4803C22.2777 26.7674 21.0213 26.9121 19.6432 26.9121H18.7553C18.1204 26.9121 17.5037 27.1408 17.0196 27.5507C16.5362 27.965 16.2155 28.5374 16.1147 29.166L16.0478 29.5296L14.9239 36.6512L14.8728 36.9127C14.8594 36.9954 14.8363 37.0368 14.8022 37.0647C14.7692 37.0917 14.7281 37.1067 14.6855 37.1073H9.20352Z" fill="#253B80"/>
<path id="Vector_2" d="M28.3974 10.9722C28.3633 11.1899 28.3244 11.4125 28.2806 11.6411C26.776 19.366 21.6285 22.0346 15.0543 22.0346H11.707C10.903 22.0346 10.2255 22.6184 10.1002 23.4115L8.38645 34.2805L7.90114 37.3615C7.88181 37.4837 7.88919 37.6086 7.92278 37.7277C7.95636 37.8468 8.01536 37.9572 8.0957 38.0513C8.17604 38.1454 8.27582 38.2209 8.38816 38.2728C8.50051 38.3246 8.62276 38.3515 8.74649 38.3515H14.6833C15.3864 38.3515 15.9836 37.8407 16.0943 37.1474L16.1527 36.8457L17.2705 29.7522L17.3422 29.3629C17.4517 28.6672 18.0501 28.1563 18.7532 28.1563H19.6411C25.393 28.1563 29.8959 25.821 31.2119 19.0631C31.7617 16.2401 31.4771 13.8828 30.0224 12.225C29.5613 11.7121 29.0106 11.2876 28.3974 10.9722Z" fill="#179BD7"/>
<path id="Vector_3" d="M26.8248 10.3447C26.3443 10.2057 25.8556 10.0972 25.3615 10.0199C24.3852 9.86988 23.3985 9.79789 22.4107 9.80463H13.4683C13.128 9.80437 12.7988 9.92587 12.5403 10.1472C12.2817 10.3685 12.1109 10.6749 12.0586 11.0112L10.1563 23.0601L10.1016 23.4116C10.1608 23.028 10.3554 22.6784 10.6501 22.4258C10.9448 22.1733 11.3202 22.0345 11.7083 22.0347H15.0556C21.6298 22.0347 26.7773 19.3649 28.2819 11.6413C28.3269 11.4126 28.3646 11.19 28.3987 10.9723C28.0016 10.7641 27.5879 10.5896 27.1617 10.4505C27.0499 10.4134 26.9376 10.3781 26.8248 10.3447Z" fill="#222D65"/>
<path id="Vector_4" d="M12.0569 11.0112C12.1087 10.6748 12.2795 10.3682 12.5381 10.147C12.7968 9.92581 13.1262 9.80475 13.4666 9.80581H22.409C23.4684 9.80581 24.4573 9.87514 25.3598 10.0211C25.9705 10.1171 26.5728 10.2606 27.1611 10.4505C27.6051 10.5976 28.0174 10.7716 28.3981 10.9723C28.8457 8.11755 28.3945 6.17387 26.851 4.41386C25.1494 2.47626 22.0781 1.64673 18.1482 1.64673H6.73912C5.93635 1.64673 5.25156 2.23056 5.1275 3.02482L0.375335 33.147C0.3532 33.2868 0.361621 33.4298 0.40002 33.5661C0.438418 33.7024 0.505883 33.8288 0.597772 33.9365C0.689661 34.0442 0.803795 34.1307 0.932322 34.1902C1.06085 34.2496 1.20072 34.2804 1.34231 34.2806H8.38602L10.1546 23.0601L12.0569 11.0112Z" fill="#253B80"/>
</g>
<defs>
<clipPath id="clip0_311_19416">
<rect width="31.3383" height="40" fill="white" transform="translate(0.332031)"/>
</clipPath>
</defs>
</svg>
