<svg width="146" height="41" viewBox="0 0 146 41" fill="none" xmlns="http://www.w3.org/2000/svg">
<g id="sepa-2 1" clip-path="url(#clip0_311_19486)">
<path id="Vector" d="M33.9659 13.8809H24.3518C24.3518 12.3036 24.1668 11.2452 23.7968 10.7058C23.225 9.90866 21.6467 9.50989 19.0619 9.50947C16.5522 9.50947 14.8906 9.7391 14.0769 10.1984C13.2652 10.6598 12.8591 11.6626 12.8587 13.2067C12.8587 14.6041 13.219 15.5239 13.9394 15.9661C14.4564 16.279 15.1397 16.4629 15.9893 16.5179L17.9277 16.6546C22.0835 16.9296 24.6785 17.1231 25.7128 17.2352C28.9991 17.5664 31.3813 18.44 32.8593 19.856C34.0221 20.9609 34.7146 22.4046 34.9369 24.1872C35.0739 25.3874 35.1386 26.5947 35.1307 27.8026C35.1307 30.8943 34.8357 33.1573 34.2458 34.5916C33.176 37.224 30.7706 38.8886 27.0297 39.5854C25.4618 39.8797 23.0648 40.0272 19.8385 40.0278C14.4542 40.0278 10.7029 39.7063 8.5844 39.0633C5.98482 38.2743 4.27029 36.6765 3.4408 34.2699C2.97828 32.9294 2.74802 30.6971 2.75001 27.5729H12.3631V28.3721C12.3631 30.0394 12.8419 31.1116 13.7993 31.5888C14.552 31.9378 15.3724 32.1163 16.2021 32.1116H19.7369C21.5402 32.1116 22.6905 32.019 23.1877 31.8338C24.0718 31.4869 24.6521 30.9268 24.9288 30.1534C25.0917 29.5512 25.1661 28.9285 25.1495 28.3048C25.1495 26.6149 24.5333 25.5858 23.3009 25.2175C22.8384 25.072 20.6948 24.8699 16.8702 24.6112C13.7975 24.3918 11.6636 24.18 10.4685 23.9758C7.32114 23.3871 5.22403 22.1745 4.17715 20.3378C3.25621 18.7761 2.79626 16.4139 2.79732 13.2513C2.79732 10.8447 3.04592 8.91518 3.54313 7.46266C4.04034 6.01013 4.84166 4.90712 5.94708 4.15364C7.56896 2.99534 9.64184 2.31527 12.1657 2.11344C14.2674 1.93033 16.5986 1.83798 19.1594 1.8364C23.1937 1.8364 26.0687 2.06724 27.7843 2.52892C31.968 3.65285 34.0599 6.80115 34.0599 11.9738C34.0599 12.398 34.0287 13.0339 33.9662 13.8817M76.2398 40.0283V1.63379H95.4922C98.1328 1.63379 100.146 1.84928 101.532 2.28027C104.699 3.27185 106.825 5.30279 107.911 8.37309C108.473 9.98476 108.754 12.4106 108.754 15.6505C108.754 19.5452 108.445 22.3442 107.825 24.0475C106.59 27.4167 104.052 29.3545 100.211 29.8611C99.7594 29.9371 97.8386 30.0029 94.4482 30.0585L92.7335 30.1156H86.5732V40.0283H76.2398ZM86.5738 21.2095H93.0162C95.0586 21.1359 96.3025 20.9772 96.7478 20.7334C97.3583 20.3977 97.7686 19.7243 97.9726 18.7166C98.1035 18.046 98.1688 17.0479 98.1686 15.7221C98.1686 14.098 98.0384 12.8934 97.7781 12.1083C97.4066 11.0064 96.5162 10.3343 95.1068 10.0922C94.8275 10.0557 94.1594 10.0369 93.1024 10.036H86.5746L86.5738 21.2095ZM130.812 33.3929H116.996L115.139 40.0283H104.448L115.985 1.63379H131.573L143.25 40.0283H132.783L130.812 33.3929ZM128.76 25.9136L123.918 9.27027L119.219 25.9136H128.76Z" fill="#10298E"/>
<path id="Vector_2" d="M61.9807 7.03572C64.0061 7.03475 66.0061 7.48669 67.8343 8.35846C69.6624 9.23023 71.2725 10.4998 72.5467 12.0742L74.7741 7.29825C71.1368 3.8657 66.3209 1.95991 61.3197 1.97395C53.1773 1.97395 46.212 6.89239 43.3543 13.854H39.0106L36.4453 19.3522H42.0328C41.9884 19.8647 41.9652 20.3783 41.9632 20.8931C41.9634 21.517 41.995 22.1406 42.0578 22.7614H39.2504L36.6859 28.2612H43.4866C46.4261 35.0465 53.3044 39.81 61.319 39.81C65.194 39.8193 68.9846 38.6784 72.2107 36.5317V29.7918C70.828 31.3723 69.0979 32.611 67.1561 33.4107C65.2144 34.2105 63.1137 34.5495 61.019 34.4012C58.9242 34.2529 56.8923 33.6214 55.0826 32.5561C53.2728 31.4908 51.7345 30.0207 50.5882 28.2612H64.8279L67.3921 22.7614H48.4935C48.3263 21.6324 48.2993 20.4872 48.413 19.3516H68.9826L71.5464 13.854H50.1901C51.3838 11.7824 53.102 10.0615 55.1717 8.86455C57.2415 7.66755 59.5899 7.03659 61.9809 7.03509" fill="#FFBE00"/>
<path id="Vector_3" d="M61.9785 7.20035C63.9797 7.19849 65.9559 7.64465 67.7621 8.5061C69.5683 9.36755 71.1588 10.6224 72.4168 12.1787L72.5828 12.3837L72.6954 12.1445L74.9225 7.36844L74.9721 7.25948L74.8865 7.17765C71.6125 4.11014 67.3963 2.24174 62.9247 1.87684C58.4531 1.51195 53.9897 2.67208 50.2617 5.16821C47.1052 7.27948 44.6473 10.2811 43.1999 13.7919L43.3521 13.6896H38.9023L38.8584 13.7842L36.294 19.2835L36.1836 19.5183H42.0309L41.8665 19.3392C41.8221 19.8562 41.7989 20.3745 41.7969 20.8939C41.7969 21.511 41.8285 22.1465 41.8915 22.7791L42.056 22.5977H39.1443L39.1005 22.6923L36.5344 28.1917L36.4255 28.4264H43.485L43.3336 28.3269C46.3991 35.4026 53.4586 39.9751 61.3174 39.9751C65.2245 39.9854 69.0467 38.8353 72.2993 36.6705L72.3717 36.6222V29.3544L72.0836 29.6834C70.7175 31.2446 69.0083 32.4682 67.0901 33.2581C65.1719 34.048 63.0967 34.3828 61.0274 34.2363C58.9581 34.0898 56.9508 33.466 55.163 32.4137C53.3752 31.3614 51.8554 29.9092 50.7229 28.1712L50.5854 28.4271H64.9312L64.9751 28.3325L67.5395 22.8319L67.6499 22.5979H48.4905L48.6543 22.7398C48.489 21.624 48.4622 20.492 48.5745 19.3696L48.4101 19.518H69.0857L69.1295 19.4234L71.6934 13.9244L71.8038 13.6896H50.1877L50.3296 13.9374C51.5138 11.8949 53.2123 10.1982 55.2561 9.01616C57.2999 7.83416 59.6176 7.20811 61.9785 7.20035ZM50.1877 14.0193H71.5434L71.3935 13.7845L68.8304 19.2835L68.9796 19.1889H48.2608L48.245 19.3381C48.1323 20.4869 48.1597 21.6452 48.3268 22.7874L48.3487 22.9293H67.3899L67.2407 22.6939L64.6769 28.1929L64.8253 28.0983H50.2792L50.4474 28.3528C51.608 30.1333 53.1652 31.6208 54.9969 32.6987C56.8286 33.7766 58.885 34.4157 61.005 34.5659C63.1251 34.7161 65.2511 34.3732 67.2164 33.5643C69.1818 32.7553 70.9331 31.5022 72.3331 29.9031L72.0434 29.7941V36.5341L72.1166 36.398C68.918 38.5259 65.1599 39.6566 61.3182 39.6469C53.5903 39.6469 46.6507 35.1519 43.6378 28.1969L43.594 28.0982H36.6844L36.835 28.3347L39.3977 22.8316L39.2477 22.9281H42.239L42.2201 22.7453C42.158 22.1238 42.1255 21.4997 42.1255 20.8937C42.1255 20.4279 42.1489 19.9278 42.1951 19.3669L42.2097 19.1884H36.4438L36.5921 19.4232L39.1568 13.9242L39.0084 14.0188H43.4617L43.5033 13.9165C44.9271 10.4662 47.3434 7.51639 50.4459 5.44114C54.1118 2.98765 58.5003 1.84752 62.8969 2.20642C67.2935 2.56531 71.439 4.40209 74.6585 7.41763L74.6219 7.22747L72.396 12.0046L72.6738 11.9695C71.2666 10.2333 69.4579 8.86577 67.4039 7.98501C65.3499 7.10425 63.1124 6.73673 60.8846 6.91418C58.6568 7.09164 56.5057 7.80874 54.6171 9.00356C52.7284 10.1984 51.159 11.835 50.0444 13.772L49.9011 14.0199L50.1877 14.0193Z" fill="#10298E"/>
</g>
<defs>
<clipPath id="clip0_311_19486">
<rect width="145.985" height="40" fill="white" transform="translate(0.0078125 0.0283203)"/>
</clipPath>
</defs>
</svg>
