<svg width="115" height="40" viewBox="0 0 115 40" fill="none" xmlns="http://www.w3.org/2000/svg">
<path id="Skrill" fill-rule="evenodd" clip-rule="evenodd" d="M77.4524 4.80699C77.4524 2.15292 79.5547 0 82.1434 0C84.7366 0 86.8374 2.15292 86.8374 4.80699C86.8374 7.46262 84.7366 9.61085 82.1434 9.61085C79.5547 9.61085 77.4524 7.46262 77.4524 4.80699ZM90.943 3.9317L100.458 2.18782V39.5993H90.943V3.9317ZM104.837 3.9317V39.5993H114.358V2.18782L104.837 3.9317ZM77.3867 12.2354V39.5988H86.9059V12.2354H77.3867ZM58.7533 24.2049C58.7533 16.1677 63.2217 12.1242 72.0167 11.8338C72.0167 11.8338 73.6052 11.7713 74.5428 11.9758V19.974C68.9676 20.1707 68.3517 22.233 68.3517 27.0432V39.5985H58.7533V24.2049ZM46.1433 12.3331L46.1432 12.3335C45.8024 13.2497 44.2513 17.4195 40.7703 21.7311V2.18782L30.9462 4.17837V39.5993H40.7703V28.6489C43.6151 33.0203 45.0207 39.5993 45.0207 39.5993H56.7855C55.6222 34.644 50.5318 25.5093 50.5318 25.5093C55.1024 19.5735 57.1071 13.2522 57.4273 12.2046H46.1915C46.1797 12.2354 46.1636 12.2784 46.1433 12.3331ZM10.4842 13.2725C10.4842 15.8407 13.271 16.0265 14.4739 16.1061C23.2963 16.7118 28.5544 21.1348 28.5544 27.9401C28.5544 33.9445 23.8527 40.0005 13.364 40.0005C8.50076 40.0005 4.351 39.5103 0.670792 38.5189V29.7792C3.12833 30.8143 7.17747 31.9009 11.3486 31.9009C15.1553 31.9009 17.4192 30.6113 17.4192 28.4194C17.4192 25.7749 14.6737 25.6026 13.6208 25.5365L13.6095 25.5358C1.32329 24.6787 0 17.2348 0 14.0749C0 8.58725 3.80217 2.18782 14.5333 2.18782C20.758 2.18782 24.1134 3.18232 27.0039 4.2174L27.1488 4.26268V12.751L27.0405 12.7198C25.8804 12.2171 24.5174 11.7237 24.5174 11.7237C22.069 10.9728 18.645 10.1734 15.9984 10.1734C14.4937 10.1734 10.4842 10.1734 10.4842 13.2725Z" fill="#862165"/>
</svg>
