<svg width="124" height="40" viewBox="0 0 124 40" fill="none" xmlns="http://www.w3.org/2000/svg">
<g id="Visa Inc. svg" clip-path="url(#clip0_311_19399)">
<path id="path3789" d="M80.6034 0C71.8308 0 63.9545 4.56471 63.9545 12.9412C63.9545 22.5882 77.8679 23.2471 77.8679 28.0471C77.8679 30.0706 75.5096 31.9059 71.5479 31.9059C65.8882 31.9059 61.6434 29.3647 61.6434 29.3647L59.8512 37.8353C59.8512 37.8353 64.7091 40 71.2177 40C80.8392 40 88.3854 35.2471 88.3854 26.6824C88.3854 16.5176 74.4249 15.8588 74.4249 11.3882C74.4249 9.78824 76.3586 8.04706 80.3204 8.04706C84.801 8.04706 88.4798 9.88235 88.4798 9.88235L90.272 1.69412C90.2248 1.69412 86.2159 0 80.6034 0ZM0.23582 0.611765L0 1.83529C0 1.83529 3.6788 2.49412 7.02744 3.85882C11.3194 5.41176 11.6024 6.30588 12.357 9.08235L20.2334 39.3412H30.7981L46.9754 0.611765H36.4578L26.0346 26.9647L21.7898 4.61176C21.4125 2.07059 19.4316 0.611765 16.9791 0.611765H0.23582ZM51.2202 0.611765L42.9664 39.3412H53.0124L61.2189 0.611765H51.2202ZM107.157 0.611765C104.751 0.611765 103.478 1.88235 102.535 4.14118L87.8195 39.3412H98.3371L100.365 33.4588H113.194L114.42 39.3412H123.711L115.646 0.611765H107.157ZM108.524 11.1059L111.637 25.6471H103.289L108.524 11.1059Z" fill="white"/>
</g>
<defs>
<clipPath id="clip0_311_19399">
<rect width="123.711" height="40" fill="white"/>
</clipPath>
</defs>
</svg>
